<svg width="143" height="36" viewBox="0 0 143 36" fill="none" xmlns="http://www.w3.org/2000/svg">
<path d="M102.715 15.4814V18.7702H100.654V20.9269H102.715V28.255C102.715 30.7573 103.847 31.7582 106.695 31.7582C107.195 31.7582 107.672 31.6987 108.089 31.6272V29.4943C107.732 29.53 107.505 29.5538 107.112 29.5538C105.837 29.5538 105.277 28.9581 105.277 27.5997V20.9269H108.089V18.7702H105.277V15.4814H102.715Z" fill="white"/>
<path d="M115.344 31.937C119.133 31.937 121.456 29.3989 121.456 25.1927C121.456 21.0103 119.121 18.4604 115.344 18.4604C111.555 18.4604 109.219 21.0103 109.219 25.1927C109.219 29.3989 111.543 31.937 115.344 31.937ZM115.344 29.6611C113.116 29.6611 111.864 28.0286 111.864 25.1927C111.864 22.3806 113.116 20.7363 115.344 20.7363C117.56 20.7363 118.823 22.3806 118.823 25.1927C118.823 28.0167 117.56 29.6611 115.344 29.6611Z" fill="white"/>
<path d="M123.444 31.6867H126.006V24.025C126.006 22.2019 127.377 20.9746 129.319 20.9746C129.772 20.9746 130.534 21.058 130.749 21.1295V18.6034C130.475 18.5319 129.986 18.4961 129.605 18.4961C127.913 18.4961 126.471 19.4255 126.102 20.7005H125.911V18.7106H123.444V31.6867Z" fill="white"/>
<path d="M137.11 20.6409C139.004 20.6409 140.244 21.9636 140.303 24.0011H133.75C133.893 21.9755 135.215 20.6409 137.11 20.6409ZM140.291 28.1835C139.815 29.1964 138.754 29.7564 137.205 29.7564C135.156 29.7564 133.833 28.3146 133.75 26.0387V25.8957H142.913V25.0021C142.913 20.9269 140.732 18.4604 137.122 18.4604C133.464 18.4604 131.14 21.0937 131.14 25.2404C131.14 29.387 133.416 31.937 137.134 31.937C140.101 31.937 142.174 30.5071 142.758 28.1835H140.291Z" fill="white"/>
<path d="M85.9147 26.8949C86.1123 30.0812 88.7676 32.119 92.7197 32.119C96.9435 32.119 99.5864 29.9824 99.5864 26.5737C99.5864 23.8937 98.0797 22.4117 94.424 21.5596L92.4604 21.0779C90.1385 20.5345 89.1999 19.8058 89.1999 18.5337C89.1999 16.9282 90.6572 15.8785 92.8432 15.8785C94.9181 15.8785 96.3507 16.9035 96.61 18.5461H99.3024C99.1418 15.545 96.4989 13.4331 92.8803 13.4331C88.9899 13.4331 86.3964 15.545 86.3964 18.719C86.3964 21.3373 87.8661 22.8934 91.0895 23.6467L93.3866 24.2025C95.7455 24.7583 96.7829 25.5734 96.7829 26.9319C96.7829 28.5127 95.1527 29.6613 92.9297 29.6613C90.5461 29.6613 88.8911 28.5868 88.6565 26.8949H85.9147Z" fill="white"/>
<path d="M59.3764 18.4961C57.6129 18.4961 56.0877 19.3779 55.3013 20.8554H55.1106V18.7106H52.6441V36.0002H55.2059V29.7207H55.4085C56.0877 31.091 57.5533 31.9012 59.4003 31.9012C62.6771 31.9012 64.7623 29.3155 64.7623 25.1927C64.7623 21.0699 62.6771 18.4961 59.3764 18.4961ZM58.6496 29.6015C56.5048 29.6015 55.1583 27.9095 55.1583 25.2046C55.1583 22.4879 56.5048 20.7958 58.6615 20.7958C60.8301 20.7958 62.1289 22.4521 62.1289 25.1927C62.1289 27.9452 60.8301 29.6015 58.6496 29.6015Z" fill="white"/>
<path d="M73.7267 18.4961C71.9632 18.4961 70.438 19.3779 69.6515 20.8554H69.4609V18.7106H66.9943V36.0002H69.5562V29.7207H69.7588C70.438 31.091 71.9036 31.9012 73.7505 31.9012C77.0273 31.9012 79.1126 29.3155 79.1126 25.1927C79.1126 21.0699 77.0273 18.4961 73.7267 18.4961ZM72.9998 29.6015C70.855 29.6015 69.5085 27.9095 69.5085 25.2046C69.5085 22.4879 70.855 20.7958 73.0117 20.7958C75.1804 20.7958 76.4792 22.4521 76.4792 25.1927C76.4792 27.9452 75.1804 29.6015 72.9998 29.6015Z" fill="white"/>
<path d="M48.0477 31.6867H50.987L44.5525 13.8654H41.5761L35.1417 31.6867H37.9822L39.6248 26.9566H46.4174L48.0477 31.6867ZM42.9223 17.1011H43.1323L45.7135 24.6348H40.3288L42.9223 17.1011Z" fill="white"/>
<path d="M36.8625 0.423006V9.02015H39.9665C42.5284 9.02015 44.0119 7.44133 44.0119 4.69477C44.0119 1.98991 42.5165 0.423006 39.9665 0.423006H36.8625ZM38.197 1.6384H39.8176C41.599 1.6384 42.6535 2.77039 42.6535 4.71264C42.6535 6.68468 41.6168 7.80475 39.8176 7.80475H38.197V1.6384Z" fill="white"/>
<path d="M48.5553 9.14526C50.4499 9.14526 51.6117 7.87625 51.6117 5.77313C51.6117 3.68194 50.444 2.40696 48.5553 2.40696C46.6607 2.40696 45.493 3.68194 45.493 5.77313C45.493 7.87625 46.6548 9.14526 48.5553 9.14526ZM48.5553 8.00732C47.4412 8.00732 46.8156 7.1911 46.8156 5.77313C46.8156 4.36709 47.4412 3.54491 48.5553 3.54491C49.6635 3.54491 50.295 4.36709 50.295 5.77313C50.295 7.18514 49.6635 8.00732 48.5553 8.00732Z" fill="white"/>
<path d="M61.5053 2.53208H60.2243L59.0685 7.48303H58.9672L57.6327 2.53208H56.4054L55.0708 7.48303H54.9755L53.8137 2.53208H52.5149L54.3022 9.02015H55.6189L56.9535 4.24197H57.0548L58.3953 9.02015H59.7239L61.5053 2.53208Z" fill="white"/>
<path d="M62.9804 9.02015H64.2613V5.22501C64.2613 4.21218 64.8631 3.58065 65.8104 3.58065C66.7577 3.58065 67.2105 4.09898 67.2105 5.1416V9.02015H68.4914V4.81988C68.4914 3.2768 67.6931 2.40696 66.2453 2.40696C65.2682 2.40696 64.6248 2.84188 64.309 3.56278H64.2137V2.53208H62.9804V9.02015Z" fill="white"/>
<path d="M70.5087 9.02015H71.7897V0H70.5087V9.02015Z" fill="white"/>
<path d="M76.6072 9.14526C78.5018 9.14526 79.6635 7.87625 79.6635 5.77313C79.6635 3.68194 78.4958 2.40696 76.6072 2.40696C74.7126 2.40696 73.5448 3.68194 73.5448 5.77313C73.5448 7.87625 74.7066 9.14526 76.6072 9.14526ZM76.6072 8.00732C75.493 8.00732 74.8675 7.1911 74.8675 5.77313C74.8675 4.36709 75.493 3.54491 76.6072 3.54491C77.7153 3.54491 78.3469 4.36709 78.3469 5.77313C78.3469 7.18514 77.7153 8.00732 76.6072 8.00732Z" fill="white"/>
<path d="M83.4801 8.04902C82.783 8.04902 82.2766 7.70943 82.2766 7.12556C82.2766 6.55361 82.6818 6.24976 83.5754 6.19018L85.1602 6.0889V6.63106C85.1602 7.43537 84.4453 8.04902 83.4801 8.04902ZM83.1524 9.12739C84.0044 9.12739 84.7134 8.75801 85.1006 8.1086H85.2019V9.02015H86.4352V4.58753C86.4352 3.21723 85.5177 2.40696 83.8912 2.40696C82.4196 2.40696 81.371 3.1219 81.24 4.23601H82.4792C82.6222 3.77726 83.1167 3.51512 83.8316 3.51512C84.7074 3.51512 85.1602 3.90238 85.1602 4.58753V5.14756L83.4027 5.24885C81.8596 5.34417 80.9897 6.01741 80.9897 7.18514C80.9897 8.37075 81.9013 9.12739 83.1524 9.12739Z" fill="white"/>
<path d="M90.782 9.12739C91.6757 9.12739 92.4323 8.70438 92.8196 7.9954H92.9209V9.02015H94.1482V0H92.8673V3.56278H92.7719C92.4204 2.84784 91.6697 2.42484 90.782 2.42484C89.1436 2.42484 88.0891 3.72364 88.0891 5.77313C88.0891 7.82858 89.1317 9.12739 90.782 9.12739ZM91.1455 3.5747C92.2179 3.5747 92.8911 4.42667 92.8911 5.77909C92.8911 7.13748 92.2238 7.97753 91.1455 7.97753C90.0611 7.97753 89.4117 7.14939 89.4117 5.77313C89.4117 4.40879 90.0671 3.5747 91.1455 3.5747Z" fill="white"/>
<path d="M102.455 9.14526C104.349 9.14526 105.511 7.87625 105.511 5.77313C105.511 3.68194 104.343 2.40696 102.455 2.40696C100.56 2.40696 99.3923 3.68194 99.3923 5.77313C99.3923 7.87625 100.554 9.14526 102.455 9.14526ZM102.455 8.00732C101.34 8.00732 100.715 7.1911 100.715 5.77313C100.715 4.36709 101.34 3.54491 102.455 3.54491C103.563 3.54491 104.194 4.36709 104.194 5.77313C104.194 7.18514 103.563 8.00732 102.455 8.00732Z" fill="white"/>
<path d="M107.207 9.02015H108.488V5.22501C108.488 4.21218 109.089 3.58065 110.037 3.58065C110.984 3.58065 111.437 4.09898 111.437 5.1416V9.02015H112.718V4.81988C112.718 3.2768 111.919 2.40696 110.471 2.40696C109.494 2.40696 108.851 2.84188 108.535 3.56278H108.44V2.53208H107.207V9.02015Z" fill="white"/>
<path d="M118.617 0.917505V2.56187H117.586V3.64023H118.617V7.3043C118.617 8.55544 119.183 9.0559 120.607 9.0559C120.857 9.0559 121.095 9.02611 121.304 8.99036V7.92391C121.125 7.94178 121.012 7.9537 120.815 7.9537C120.178 7.9537 119.898 7.65581 119.898 6.97662V3.64023H121.304V2.56187H119.898V0.917505H118.617Z" fill="white"/>
<path d="M123.023 9.02015H124.304V5.23097C124.304 4.24793 124.888 3.58661 125.937 3.58661C126.842 3.58661 127.325 4.1109 127.325 5.14756V9.02015H128.606V4.8318C128.606 3.28872 127.754 2.41292 126.372 2.41292C125.395 2.41292 124.709 2.84784 124.394 3.5747H124.292V0H123.023V9.02015Z" fill="white"/>
<path d="M133.227 3.49724C134.174 3.49724 134.794 4.15856 134.823 5.17735H131.547C131.618 4.16452 132.279 3.49724 133.227 3.49724ZM134.818 7.26855C134.579 7.77496 134.049 8.05498 133.274 8.05498C132.25 8.05498 131.588 7.33408 131.547 6.19614V6.12465H136.128V5.67781C136.128 3.64023 135.038 2.40696 133.233 2.40696C131.404 2.40696 130.242 3.72364 130.242 5.79697C130.242 7.87029 131.38 9.14526 133.239 9.14526C134.722 9.14526 135.759 8.43033 136.051 7.26855H134.818Z" fill="white"/>
<path d="M21.2413 17.06C21.2724 14.6469 22.5683 12.3636 24.6241 11.0997C23.3272 9.24751 21.1549 8.07314 18.8949 8.00242C16.4844 7.74941 14.1475 9.44484 12.9191 9.44484C11.667 9.44484 9.77572 8.02754 7.73915 8.06945C5.08458 8.15521 2.60985 9.66446 1.31834 11.9853C-1.45789 16.7919 0.612927 23.856 3.27232 27.7413C4.60287 29.6438 6.15791 31.769 8.19264 31.6936C10.1837 31.611 10.9274 30.4239 13.3308 30.4239C15.7119 30.4239 16.4096 31.6936 18.4856 31.6457C20.6222 31.611 21.9683 29.7347 23.2522 27.8142C24.2082 26.4586 24.9438 24.9603 25.4319 23.3749C22.921 22.313 21.2443 19.7861 21.2413 17.06Z" fill="white"/>
<path d="M17.3201 5.44726C18.485 4.0488 19.0589 2.25131 18.9199 0.436523C17.1402 0.623453 15.4962 1.47406 14.3155 2.81887C13.161 4.13282 12.5601 5.89868 12.6737 7.6441C14.4541 7.66243 16.2044 6.83488 17.3201 5.44726Z" fill="white"/>
</svg>
