<svg width="985" height="354" viewBox="0 0 985 354" fill="none" xmlns="http://www.w3.org/2000/svg">
<path opacity="0.1" d="M270.226 463.113C179.925 457.685 92.3387 490.932 0 533H31.2322C56.3537 518.493 135.656 489.769 251.894 490.932C397.192 492.386 491.568 450.221 485.457 378.299C479.346 306.377 430.163 322 447.435 227.669C464.675 133.516 509.9 100.787 585.264 87.8951C660.629 75.0033 1225.52 233.097 1280.52 62.1117C1335.52 -108.874 1260.15 -155.013 1225.52 -197.081C1197.82 -230.735 1127.98 -241.863 1096.52 -243.22L1107.39 -307C1063.25 -288.002 999.295 -239.42 1096.52 -197.081C1218.06 -144.157 1218.06 -57.3069 1186.82 40.3991C1155.59 138.105 780.126 95.3589 618.533 62.1117C456.941 28.8645 412.129 216.813 428.424 294.163C444.719 371.514 360.528 468.541 270.226 463.113Z" fill="white"/>
</svg>
