<svg width="118" height="72" viewBox="0 0 118 72" fill="none" xmlns="http://www.w3.org/2000/svg">
<g clip-path="url(#clip0_1_755)">
<path d="M0.00170898 17.0479V12.345H4.35189V10.5422C4.35189 7.21098 5.17489 4.62438 6.82091 2.78242C8.46692 0.940451 10.8576 0.0390625 13.9928 0.0390625H16.4618V5.72173H13.9928C11.5238 5.72173 10.2697 7.32855 10.2697 10.5814V12.3842H15.1294V17.1262H10.2697V34.9972H4.35189V17.0479H0.00170898Z" fill="white"/>
<path d="M17.8728 23.5922C17.8728 21.8286 18.1863 20.1826 18.8526 18.6933C19.4796 17.2041 20.3418 15.95 21.4392 14.9702C22.5365 13.9905 23.7514 13.2066 25.1623 12.658C26.5732 12.1093 27.984 11.835 29.5125 11.835C30.7666 11.835 32.0599 12.1093 33.3924 12.6188C34.7248 13.1283 35.783 13.9905 36.5276 15.127V12.3444H42.4454V34.9575H36.5276V32.0182C35.8614 33.1156 34.8424 33.9386 33.4707 34.4872C32.0991 35.0751 30.7666 35.3494 29.5125 35.3494C27.4745 35.3494 25.5934 34.8791 23.8298 33.9386C22.0662 32.998 20.6553 31.6263 19.5188 29.7843C18.4215 27.9816 17.8728 25.9436 17.8728 23.5922ZM24.1041 23.5922C24.1041 25.3558 24.7312 26.8058 25.9853 27.9424C27.2394 29.0789 28.6895 29.6668 30.3747 29.6668C32.0599 29.6668 33.5099 29.1181 34.7248 28.0208C35.9398 26.9234 36.5668 25.4342 36.5668 23.5922C36.5668 21.7502 35.9398 20.261 34.7248 19.1636C33.5099 18.0663 32.0599 17.5176 30.3747 17.5176C28.6895 17.5176 27.2394 18.1055 25.9853 19.242C24.692 20.3785 24.1041 21.8286 24.1041 23.5922Z" fill="white"/>
<path d="M47.5798 23.5139C47.5798 21.7895 47.8934 20.1827 48.5988 18.6935C49.265 17.2042 50.1664 15.9893 51.303 14.9704C52.4395 13.9514 53.7328 13.2068 55.222 12.6189C56.7113 12.0702 58.2397 11.7959 59.8857 11.7959C61.8061 11.7959 63.5697 12.1878 65.2157 12.9324C66.8617 13.6771 68.2334 14.7744 69.2915 16.1461L64.6278 19.6732C64.1183 18.9678 63.4129 18.4191 62.5899 18.0272C61.7669 17.6353 60.8655 17.4394 59.9249 17.4394C58.2005 17.4394 56.7113 17.988 55.4572 19.1246C54.2031 20.2219 53.576 21.672 53.576 23.4748C53.576 25.2775 54.2031 26.7668 55.4572 27.9425C56.7113 29.1182 58.2005 29.7061 59.9249 29.7061C60.8655 29.7061 61.7277 29.5101 62.5899 29.1182C63.4521 28.7263 64.1183 28.1776 64.6278 27.433L69.3699 30.921C68.3118 32.3319 66.9401 33.4292 65.2941 34.213C63.6481 34.9968 61.8453 35.3888 59.9249 35.3888C57.7694 35.3888 55.7707 34.9185 53.8895 33.9387C52.0084 32.9589 50.5191 31.5481 49.3826 29.7061C48.1677 27.9033 47.5798 25.8262 47.5798 23.5139Z" fill="white"/>
<path d="M74.0714 29.7852C73.0133 27.9824 72.4646 25.9053 72.4646 23.593C72.4646 21.2808 73.0133 19.2037 74.0714 17.4009C75.1296 15.5981 76.5404 14.2264 78.3432 13.2859C80.1068 12.3453 82.0663 11.875 84.2218 11.875C87.5139 11.875 90.218 12.9723 92.4127 15.1278C94.6074 17.2833 95.7047 20.1051 95.7047 23.6322C95.7047 24.2593 95.6655 24.9255 95.6264 25.6702H78.3824C78.5784 27.1594 79.2446 28.3351 80.3811 29.2365C81.5177 30.0987 82.9285 30.569 84.6137 30.569C85.8287 30.569 86.926 30.2947 87.9842 29.8244C89.0423 29.3541 89.7869 28.6095 90.2964 27.6689C90.8451 27.9824 91.6289 28.4135 92.7262 29.0014C93.8236 29.5892 94.4898 29.942 94.7642 30.0987C93.7844 31.9407 92.3735 33.2732 90.4532 34.1746C88.5328 35.0759 86.4557 35.5462 84.2218 35.5462C82.0663 35.5462 80.1068 35.0759 78.3432 34.0962C76.5796 32.9988 75.1296 31.588 74.0714 29.7852ZM78.304 21.5943H89.9045C89.7085 20.0659 89.0815 18.8902 88.0625 18.0671C87.0436 17.2049 85.7503 16.813 84.261 16.813C82.6934 16.813 81.3609 17.2441 80.2636 18.1063C79.1662 18.8902 78.5 20.0659 78.304 21.5943Z" fill="white"/>
<path d="M98.8396 27.8249H104.365C104.444 28.6479 104.875 29.3534 105.698 29.902C106.521 30.4507 107.462 30.725 108.52 30.6859C109.343 30.6467 110.048 30.4115 110.636 30.0196C111.224 29.5885 111.498 29.079 111.498 28.4128C111.537 27.3546 110.793 26.6492 109.264 26.2573L106.168 25.5127C105.032 25.1991 104.052 24.8464 103.229 24.4153C102.406 23.9842 101.779 23.5923 101.348 23.1612C100.917 22.7301 100.564 22.2598 100.29 21.7112C100.055 21.1625 99.8586 20.653 99.8194 20.2219C99.7802 19.7908 99.741 19.2421 99.741 18.6151C99.741 16.7731 100.525 15.2055 102.132 13.8338C103.738 12.4621 105.62 11.7959 107.814 11.7959C108.951 11.7959 110.048 11.9135 111.028 12.1878C112.047 12.4621 112.987 12.854 113.85 13.4027C114.712 13.9514 115.417 14.696 115.927 15.6366C116.436 16.5772 116.75 17.6745 116.789 18.9286H110.989C110.95 18.184 110.597 17.5961 110.009 17.2434C109.382 16.8515 108.716 16.6556 107.932 16.6556C107.109 16.6556 106.403 16.8123 105.894 17.165C105.345 17.5178 105.071 18.0664 105.071 18.8502C105.071 19.2813 105.306 19.6732 105.816 19.9868C106.286 20.3003 106.952 20.5746 107.697 20.7314L111.498 21.6328C112.478 21.8679 113.34 22.2206 114.085 22.6909C114.829 23.1612 115.417 23.5923 115.809 24.0626C116.201 24.5329 116.554 25.0816 116.789 25.6302C117.024 26.1789 117.181 26.6884 117.259 27.1195C117.338 27.5506 117.377 27.9817 117.377 28.3736C117.377 29.8237 116.907 31.117 116.005 32.1751C115.104 33.2724 113.928 34.0563 112.517 34.5657C111.106 35.0752 109.578 35.3104 107.932 35.3104C105.58 35.3104 103.464 34.6049 101.661 33.2724C99.8194 31.9792 98.8788 30.1372 98.8396 27.8249Z" fill="white"/>
<path d="M60.2375 47.3422C54.4373 47.3422 48.9898 45.0691 44.8748 40.9933L48.7938 37.0742C51.8507 40.1311 55.9266 41.8163 60.2375 41.8163C64.5485 41.8163 68.6244 40.1311 71.6812 37.0742L75.6003 40.9933C71.4853 45.1083 66.0378 47.3422 60.2375 47.3422Z" fill="white"/>
</g>
<path d="M3.95845 68.2607V56.7838H8.55371C9.39805 56.7838 10.1023 56.9089 10.6664 57.1592C11.2306 57.4096 11.6546 57.757 11.9385 58.2016C12.2225 58.6424 12.3644 59.1505 12.3644 59.7259C12.3644 60.1742 12.2748 60.5683 12.0954 60.9083C11.9161 61.2446 11.6695 61.521 11.3557 61.7377C11.0456 61.9507 10.6907 62.102 10.291 62.1916V62.3037C10.7281 62.3224 11.1372 62.4457 11.5182 62.6736C11.903 62.9015 12.215 63.2209 12.4541 63.6319C12.6932 64.0391 12.8127 64.5248 12.8127 65.0889C12.8127 65.6979 12.6614 66.2414 12.3588 66.7196C12.0599 67.1941 11.6172 67.5696 11.0307 67.846C10.4441 68.1225 9.72121 68.2607 8.86193 68.2607H3.95845ZM6.38497 66.2769H8.36318C9.03939 66.2769 9.53254 66.148 9.84263 65.8903C10.1527 65.6287 10.3078 65.2813 10.3078 64.8479C10.3078 64.5304 10.2312 64.2502 10.078 64.0073C9.92482 63.7645 9.70627 63.5739 9.42233 63.4357C9.14213 63.2975 8.80776 63.2284 8.41922 63.2284H6.38497V66.2769ZM6.38497 61.5864H8.18385C8.51636 61.5864 8.8115 61.5285 9.06928 61.4127C9.3308 61.2931 9.53628 61.125 9.68572 60.9083C9.8389 60.6916 9.91548 60.432 9.91548 60.1294C9.91548 59.7147 9.76791 59.3803 9.47277 59.1262C9.18136 58.8722 8.76667 58.7452 8.22868 58.7452H6.38497V61.5864ZM26.5306 56.7838H28.9571V64.2371C28.9571 65.0739 28.7572 65.8062 28.3575 66.4338C27.9615 67.0615 27.4067 67.5509 26.6931 67.9021C25.9795 68.2495 25.1483 68.4233 24.1993 68.4233C23.2466 68.4233 22.4135 68.2495 21.6999 67.9021C20.9864 67.5509 20.4316 67.0615 20.0356 66.4338C19.6395 65.8062 19.4415 65.0739 19.4415 64.2371V56.7838H21.8681V64.0297C21.8681 64.4668 21.9633 64.8554 22.1539 65.1954C22.3481 65.5353 22.6209 65.8025 22.972 65.9967C23.3232 66.191 23.7323 66.2881 24.1993 66.2881C24.67 66.2881 25.0791 66.191 25.4266 65.9967C25.7778 65.8025 26.0486 65.5353 26.2392 65.1954C26.4334 64.8554 26.5306 64.4668 26.5306 64.0297V56.7838ZM42.2294 60.0845C42.1846 59.6325 41.9922 59.2813 41.6522 59.031C41.3122 58.7807 40.8508 58.6555 40.268 58.6555C39.872 58.6555 39.5376 58.7116 39.2649 58.8236C38.9922 58.932 38.783 59.0833 38.6373 59.2776C38.4953 59.4718 38.4243 59.6922 38.4243 59.9388C38.4168 60.1443 38.4598 60.3236 38.5532 60.4768C38.6503 60.63 38.783 60.7626 38.9511 60.8747C39.1192 60.983 39.3135 61.0783 39.5339 61.1605C39.7543 61.2389 39.9897 61.3062 40.24 61.3622L41.2711 61.6088C41.7717 61.7209 42.2313 61.8703 42.6497 62.0571C43.0681 62.2439 43.4305 62.4737 43.7369 62.7464C44.0432 63.0191 44.2805 63.3404 44.4486 63.7103C44.6204 64.0802 44.7082 64.5042 44.712 64.9824C44.7082 65.6848 44.5289 66.2937 44.174 66.8093C43.8228 67.3211 43.3147 67.719 42.6497 68.003C41.9884 68.2832 41.1908 68.4233 40.2568 68.4233C39.3303 68.4233 38.5233 68.2813 37.8359 67.9974C37.1522 67.7134 36.618 67.2931 36.2331 66.7365C35.8521 66.1761 35.6522 65.483 35.6335 64.6574H37.9816C38.0077 65.0422 38.118 65.3635 38.3122 65.6213C38.5102 65.8753 38.7736 66.0677 39.1024 66.1985C39.4349 66.3255 39.8104 66.389 40.2288 66.389C40.6397 66.389 40.9965 66.3292 41.2991 66.2097C41.6055 66.0901 41.8427 65.9239 42.0109 65.7109C42.179 65.498 42.263 65.2533 42.263 64.9768C42.263 64.719 42.1864 64.5023 42.0333 64.3267C41.8838 64.1512 41.6634 64.0017 41.372 63.8784C41.0843 63.7551 40.7313 63.6431 40.3128 63.5422L39.0632 63.2284C38.0955 62.993 37.3315 62.625 36.7711 62.1244C36.2107 61.6238 35.9324 60.9494 35.9361 60.1013C35.9324 59.4064 36.1173 58.7993 36.4909 58.28C36.8683 57.7607 37.3857 57.3554 38.0432 57.064C38.7008 56.7726 39.448 56.6269 40.2848 56.6269C41.1366 56.6269 41.8801 56.7726 42.5152 57.064C43.1541 57.3554 43.651 57.7607 44.0059 58.28C44.3608 58.7993 44.5439 59.4008 44.5551 60.0845H42.2294ZM53.8205 56.7838V68.2607H51.394V56.7838H53.8205ZM70.4664 56.7838V68.2607H68.3705L63.3774 61.0372H63.2933V68.2607H60.8668V56.7838H62.9963L67.9502 64.0017H68.0511V56.7838H70.4664ZM77.5211 68.2607V56.7838H85.2546V58.7844H79.9476V61.5191H84.8567V63.5198H79.9476V66.2601H85.277V68.2607H77.5211ZM98.4597 60.0845C98.4149 59.6325 98.2224 59.2813 97.8825 59.031C97.5425 58.7807 97.0811 58.6555 96.4983 58.6555C96.1023 58.6555 95.7679 58.7116 95.4952 58.8236C95.2224 58.932 95.0132 59.0833 94.8675 59.2776C94.7256 59.4718 94.6546 59.6922 94.6546 59.9388C94.6471 60.1443 94.6901 60.3236 94.7835 60.4768C94.8806 60.63 95.0132 60.7626 95.1814 60.8747C95.3495 60.983 95.5437 61.0783 95.7642 61.1605C95.9846 61.2389 96.22 61.3062 96.4703 61.3622L97.5014 61.6088C98.002 61.7209 98.4616 61.8703 98.88 62.0571C99.2984 62.2439 99.6608 62.4737 99.9672 62.7464C100.274 63.0191 100.511 63.3404 100.679 63.7103C100.851 64.0802 100.939 64.5042 100.942 64.9824C100.939 65.6848 100.759 66.2937 100.404 66.8093C100.053 67.3211 99.545 67.719 98.88 68.003C98.2187 68.2832 97.4211 68.4233 96.4871 68.4233C95.5606 68.4233 94.7536 68.2813 94.0662 67.9974C93.3825 67.7134 92.8482 67.2931 92.4634 66.7365C92.0823 66.1761 91.8825 65.483 91.8638 64.6574H94.2119C94.238 65.0422 94.3482 65.3635 94.5425 65.6213C94.7405 65.8753 95.0039 66.0677 95.3327 66.1985C95.6652 66.3255 96.0406 66.389 96.4591 66.389C96.87 66.389 97.2268 66.3292 97.5294 66.2097C97.8358 66.0901 98.073 65.9239 98.2411 65.7109C98.4092 65.498 98.4933 65.2533 98.4933 64.9768C98.4933 64.719 98.4167 64.5023 98.2635 64.3267C98.1141 64.1512 97.8937 64.0017 97.6023 63.8784C97.3146 63.7551 96.9616 63.6431 96.5431 63.5422L95.2934 63.2284C94.3258 62.993 93.5618 62.625 93.0014 62.1244C92.441 61.6238 92.1627 60.9494 92.1664 60.1013C92.1627 59.4064 92.3476 58.7993 92.7212 58.28C93.0985 57.7607 93.616 57.3554 94.2735 57.064C94.931 56.7726 95.6782 56.6269 96.5151 56.6269C97.3669 56.6269 98.1104 56.7726 98.7455 57.064C99.3843 57.3554 99.8812 57.7607 100.236 58.28C100.591 58.7993 100.774 59.4008 100.785 60.0845H98.4597ZM113.85 60.0845C113.805 59.6325 113.613 59.2813 113.273 59.031C112.933 58.7807 112.472 58.6555 111.889 58.6555C111.493 58.6555 111.159 58.7116 110.886 58.8236C110.613 58.932 110.404 59.0833 110.258 59.2776C110.116 59.4718 110.045 59.6922 110.045 59.9388C110.038 60.1443 110.081 60.3236 110.174 60.4768C110.271 60.63 110.404 60.7626 110.572 60.8747C110.74 60.983 110.934 61.0783 111.155 61.1605C111.375 61.2389 111.611 61.3062 111.861 61.3622L112.892 61.6088C113.393 61.7209 113.852 61.8703 114.271 62.0571C114.689 62.2439 115.051 62.4737 115.358 62.7464C115.664 63.0191 115.901 63.3404 116.069 63.7103C116.241 64.0802 116.329 64.5042 116.333 64.9824C116.329 65.6848 116.15 66.2937 115.795 66.8093C115.444 67.3211 114.936 67.719 114.271 68.003C113.609 68.2832 112.812 68.4233 111.878 68.4233C110.951 68.4233 110.144 68.2813 109.457 67.9974C108.773 67.7134 108.239 67.2931 107.854 66.7365C107.473 66.1761 107.273 65.483 107.254 64.6574H109.602C109.629 65.0422 109.739 65.3635 109.933 65.6213C110.131 65.8753 110.395 66.0677 110.723 66.1985C111.056 66.3255 111.431 66.389 111.85 66.389C112.261 66.389 112.617 66.3292 112.92 66.2097C113.226 66.0901 113.464 65.9239 113.632 65.7109C113.8 65.498 113.884 65.2533 113.884 64.9768C113.884 64.719 113.807 64.5023 113.654 64.3267C113.505 64.1512 113.284 64.0017 112.993 63.8784C112.705 63.7551 112.352 63.6431 111.934 63.5422L110.684 63.2284C109.716 62.993 108.952 62.625 108.392 62.1244C107.832 61.6238 107.553 60.9494 107.557 60.1013C107.553 59.4064 107.738 58.7993 108.112 58.28C108.489 57.7607 109.007 57.3554 109.664 57.064C110.322 56.7726 111.069 56.6269 111.906 56.6269C112.758 56.6269 113.501 56.7726 114.136 57.064C114.775 57.3554 115.272 57.7607 115.627 58.28C115.982 58.7993 116.165 59.4008 116.176 60.0845H113.85Z" fill="white"/>
<defs>
<clipPath id="clip0_1_755">
<rect width="117.376" height="47.3425" fill="white" transform="translate(0.00170898)"/>
</clipPath>
</defs>
</svg>
