<svg width="155" height="37" viewBox="0 0 155 37" fill="none" xmlns="http://www.w3.org/2000/svg">
<path d="M77.8589 20.6933C74.7473 20.6933 72.2112 23.0601 72.2112 26.3198C72.2112 29.5597 74.7473 31.9463 77.8589 31.9463C80.9718 31.9463 83.5078 29.5597 83.5078 26.3198C83.5065 23.0601 80.9704 20.6933 77.8589 20.6933ZM77.8589 29.7317C76.1536 29.7317 74.6838 28.3254 74.6838 26.3211C74.6838 24.2957 76.1549 22.9106 77.8589 22.9106C79.5641 22.9106 81.0339 24.2957 81.0339 26.3211C81.0339 28.324 79.5641 29.7317 77.8589 29.7317ZM65.537 20.6933C62.4255 20.6933 59.8894 23.0601 59.8894 26.3198C59.8894 29.5597 62.4255 31.9463 65.537 31.9463C68.6499 31.9463 71.186 29.5597 71.186 26.3198C71.186 23.0601 68.6499 20.6933 65.537 20.6933ZM65.537 29.7317C63.8317 29.7317 62.3619 28.3254 62.3619 26.3211C62.3619 24.2957 63.8331 22.9106 65.537 22.9106C67.2423 22.9106 68.7121 24.2957 68.7121 26.3211C68.7134 28.324 67.2423 29.7317 65.537 29.7317ZM50.8815 22.4211V24.8077H56.5939C56.4233 26.1505 55.9761 27.1308 55.2935 27.8121C54.4627 28.6429 53.1622 29.5597 50.8815 29.5597C47.3651 29.5597 44.616 26.7246 44.616 23.2082C44.616 19.6919 47.3651 16.8568 50.8815 16.8568C52.7786 16.8568 54.1637 17.6029 55.1863 18.5621L56.8704 16.878C55.4417 15.514 53.5459 14.4702 50.8815 14.4702C46.0647 14.4702 42.0151 18.3914 42.0151 23.2082C42.0151 28.0251 46.0647 31.9463 50.8815 31.9463C53.4811 31.9463 55.443 31.093 56.9763 29.4948C58.5532 27.9179 59.044 25.7007 59.044 23.9107C59.044 23.3577 59.0017 22.8457 58.9157 22.4198H50.8815V22.4211ZM110.821 24.2745C110.353 23.0177 108.924 20.6933 106.004 20.6933C103.106 20.6933 100.697 22.9741 100.697 26.3198C100.697 29.4737 103.085 31.9463 106.281 31.9463C108.859 31.9463 110.352 30.3693 110.971 29.4525L109.052 28.1732C108.413 29.1112 107.539 29.729 106.281 29.729C105.024 29.729 104.128 29.1535 103.553 28.0237L111.077 24.9122L110.821 24.2745ZM103.148 26.1505C103.085 23.9755 104.832 22.8682 106.09 22.8682C107.071 22.8682 107.902 23.3591 108.179 24.0615L103.148 26.1505ZM97.0322 31.6063H99.5035V15.0682H97.0322V31.6063ZM92.9814 21.9514H92.8967C92.3424 21.29 91.2761 20.6933 89.9347 20.6933C87.1208 20.6933 84.5424 23.1659 84.5424 26.3423C84.5424 29.4962 87.1208 31.9476 89.9347 31.9476C91.2775 31.9476 92.3424 31.3509 92.8967 30.6696H92.9814V31.4793C92.9814 33.6317 91.8304 34.7826 89.977 34.7826C88.4636 34.7826 87.5256 33.6965 87.1419 32.7797L84.9895 33.6753C85.6073 35.1663 87.2478 36.9999 89.977 36.9999C92.8756 36.9999 95.327 35.2946 95.327 31.1379V21.036H92.9827V21.9514H92.9814ZM90.1477 29.7317C88.4424 29.7317 87.0149 28.3029 87.0149 26.3423C87.0149 24.3592 88.4424 22.9106 90.1477 22.9106C91.8304 22.9106 93.1521 24.3592 93.1521 26.3423C93.1521 28.3029 91.8304 29.7317 90.1477 29.7317ZM122.402 15.0682H116.487V31.6063H118.955V25.3408H122.401C125.137 25.3408 127.828 23.3604 127.828 20.2052C127.828 17.0499 125.138 15.0682 122.402 15.0682ZM122.466 23.0389H118.955V17.3701H122.466C124.311 17.3701 125.359 18.8981 125.359 20.2052C125.359 21.4858 124.311 23.0389 122.466 23.0389ZM137.722 20.6642C135.935 20.6642 134.084 21.4514 133.318 23.1963L135.509 24.1105C135.977 23.1963 136.85 22.8973 137.764 22.8973C139.041 22.8973 140.339 23.6633 140.36 25.0246V25.1953C139.913 24.94 138.955 24.5576 137.785 24.5576C135.424 24.5576 133.019 25.8554 133.019 28.2804C133.019 30.4937 134.956 31.9185 137.125 31.9185C138.784 31.9185 139.7 31.1737 140.274 30.3005H140.359V31.5772H142.742V25.2363C142.744 22.302 140.55 20.6642 137.722 20.6642ZM137.423 29.7277C136.616 29.7277 135.487 29.3229 135.487 28.3227C135.487 27.0461 136.892 26.5566 138.106 26.5566C139.189 26.5566 139.701 26.7908 140.36 27.1096C140.168 28.6429 138.849 29.7277 137.423 29.7277ZM151.424 21.0254L148.594 28.1957H148.509L145.572 21.0254H142.913L147.317 31.0467L144.806 36.6215H147.381L154.169 21.0254H151.424ZM129.19 31.6063H131.658V15.0682H129.19V31.6063Z" fill="white"/>
<path d="M50.4502 5.46883C50.4502 6.57745 50.1222 7.45985 49.4647 8.11868C48.7185 8.90186 47.7448 9.29345 46.5489 9.29345C45.4032 9.29345 44.4282 8.89656 43.6278 8.1028C42.8261 7.30771 42.4253 6.32345 42.4253 5.14868C42.4253 3.97258 42.8261 2.98832 43.6278 2.19455C44.4282 1.39947 45.4032 1.00258 46.5489 1.00258C47.1178 1.00258 47.6615 1.11371 48.1774 1.33464C48.6947 1.5569 49.1088 1.85191 49.4184 2.22101L48.7212 2.91952C48.196 2.29113 47.4723 1.97759 46.5476 1.97759C45.7115 1.97759 44.9891 2.27128 44.3793 2.85867C43.7694 3.44605 43.4651 4.20939 43.4651 5.14735C43.4651 6.08532 43.7694 6.84865 44.3793 7.43604C44.9891 8.02343 45.7115 8.31712 46.5476 8.31712C47.4339 8.31712 48.1735 8.0221 48.7648 7.43075C49.1485 7.04577 49.3707 6.50998 49.4303 5.82338H46.5476V4.86954H50.3934C50.433 5.07724 50.4502 5.277 50.4502 5.46883Z" fill="white"/>
<path d="M56.5491 2.15362H52.9349V4.66985H56.1946V5.62369H52.9349V8.13992H56.5491V9.11625H51.9149V1.17861H56.5491V2.15362Z" fill="white"/>
<path d="M60.8498 9.11625H59.8299V2.15362H57.6126V1.17861H63.0671V2.15362H60.8498V9.11625Z" fill="white"/>
<path d="M67.0134 9.11625V1.17861H68.0334V9.11625H67.0134Z" fill="white"/>
<path d="M72.5567 9.11625H71.5367V2.15362H69.3195V1.17861H74.774V2.15362H72.5567V9.11625Z" fill="white"/>
<path d="M85.0992 8.09096C84.3187 8.89266 83.3489 9.29351 82.1887 9.29351C81.0285 9.29351 80.0588 8.89266 79.2796 8.09096C78.4991 7.28926 78.1101 6.30763 78.1101 5.14742C78.1101 3.9872 78.4991 3.00558 79.2796 2.20388C80.0588 1.40217 81.0285 1 82.1887 1C83.3423 1 84.3107 1.4035 85.0939 2.20917C85.8771 3.01484 86.2687 3.99381 86.2687 5.14742C86.2687 6.30763 85.8784 7.28926 85.0992 8.09096ZM80.0323 7.42552C80.6197 8.02084 81.3381 8.31718 82.1887 8.31718C83.0394 8.31718 83.7591 8.01952 84.3451 7.42552C84.9325 6.8302 85.2275 6.07083 85.2275 5.14742C85.2275 4.224 84.9325 3.46464 84.3451 2.86931C83.7591 2.27399 83.0394 1.97765 82.1887 1.97765C81.3381 1.97765 80.6197 2.27531 80.0323 2.86931C79.4463 3.46464 79.1513 4.224 79.1513 5.14742C79.1513 6.07083 79.4463 6.8302 80.0323 7.42552Z" fill="white"/>
<path d="M87.7001 9.11625V1.17861H88.9411L92.7987 7.35277H92.8424L92.7987 5.82345V1.17861H93.8187V9.11625H92.7538L88.7175 2.64178H88.6738L88.7175 4.1711V9.11625H87.7001Z" fill="white"/>
<path d="M50.4502 5.46883C50.4502 6.57745 50.1222 7.45985 49.4647 8.11868C48.7185 8.90186 47.7448 9.29345 46.5489 9.29345C45.4032 9.29345 44.4282 8.89656 43.6278 8.1028C42.8261 7.30771 42.4253 6.32345 42.4253 5.14868C42.4253 3.97258 42.8261 2.98832 43.6278 2.19455C44.4282 1.39947 45.4032 1.00258 46.5489 1.00258C47.1178 1.00258 47.6615 1.11371 48.1774 1.33464C48.6947 1.5569 49.1088 1.85191 49.4184 2.22101L48.7212 2.91952C48.196 2.29113 47.4723 1.97759 46.5476 1.97759C45.7115 1.97759 44.9891 2.27128 44.3793 2.85867C43.7694 3.44605 43.4651 4.20939 43.4651 5.14735C43.4651 6.08532 43.7694 6.84865 44.3793 7.43604C44.9891 8.02343 45.7115 8.31712 46.5476 8.31712C47.4339 8.31712 48.1735 8.0221 48.7648 7.43075C49.1485 7.04577 49.3707 6.50998 49.4303 5.82338H46.5476V4.86954H50.3934C50.433 5.07724 50.4502 5.277 50.4502 5.46883Z" stroke="white" stroke-width="0.240535" stroke-miterlimit="10"/>
<path d="M56.5491 2.15362H52.9349V4.66985H56.1946V5.62369H52.9349V8.13992H56.5491V9.11625H51.9149V1.17861H56.5491V2.15362Z" stroke="white" stroke-width="0.240535" stroke-miterlimit="10"/>
<path d="M60.8498 9.11625H59.8299V2.15362H57.6126V1.17861H63.0671V2.15362H60.8498V9.11625Z" stroke="white" stroke-width="0.240535" stroke-miterlimit="10"/>
<path d="M67.0134 9.11625V1.17861H68.0334V9.11625H67.0134Z" stroke="white" stroke-width="0.240535" stroke-miterlimit="10"/>
<path d="M72.5567 9.11625H71.5367V2.15362H69.3195V1.17861H74.774V2.15362H72.5567V9.11625Z" stroke="white" stroke-width="0.240535" stroke-miterlimit="10"/>
<path d="M85.0992 8.09096C84.3187 8.89266 83.3489 9.29351 82.1887 9.29351C81.0285 9.29351 80.0588 8.89266 79.2796 8.09096C78.4991 7.28926 78.1101 6.30763 78.1101 5.14742C78.1101 3.9872 78.4991 3.00558 79.2796 2.20388C80.0588 1.40217 81.0285 1 82.1887 1C83.3423 1 84.3107 1.4035 85.0939 2.20917C85.8771 3.01484 86.2687 3.99381 86.2687 5.14742C86.2687 6.30763 85.8784 7.28926 85.0992 8.09096ZM80.0323 7.42552C80.6197 8.02084 81.3381 8.31718 82.1887 8.31718C83.0394 8.31718 83.7591 8.01952 84.3451 7.42552C84.9325 6.8302 85.2275 6.07083 85.2275 5.14742C85.2275 4.224 84.9325 3.46464 84.3451 2.86931C83.7591 2.27399 83.0394 1.97765 82.1887 1.97765C81.3381 1.97765 80.6197 2.27531 80.0323 2.86931C79.4463 3.46464 79.1513 4.224 79.1513 5.14742C79.1513 6.07083 79.4463 6.8302 80.0323 7.42552Z" stroke="white" stroke-width="0.240535" stroke-miterlimit="10"/>
<path d="M87.7001 9.11625V1.17861H88.9411L92.7987 7.35277H92.8424L92.7987 5.82345V1.17861H93.8187V9.11625H92.7538L88.7175 2.64178H88.6738L88.7175 4.1711V9.11625H87.7001Z" stroke="white" stroke-width="0.240535" stroke-miterlimit="10"/>
<path d="M23.0563 24.2732L4.27405 34.948C3.40658 35.4398 2.61446 35.5064 2.01721 35.2224L18.0104 19.2273L23.0563 24.2732ZM17.1608 18.3767L1.18323 34.3562C1.01026 33.9924 0.91272 33.5397 0.91272 33.0066V3.7488C0.91272 3.21639 1.01013 2.76336 1.18323 2.39919L17.1608 18.3767ZM30.0729 16.4685C31.921 17.5189 31.921 19.2381 30.0729 20.2898L24.1432 23.659L18.861 18.3767L24.1393 13.0974L30.0729 16.4685ZM2.01624 1.53298C2.61355 1.24853 3.4064 1.31635 4.27405 1.80934L23.0553 12.4802L18.0104 17.5261L2.01624 1.53298Z" fill="white"/>
</svg>
