<svg width="20" height="19" viewBox="0 0 20 19" fill="none" xmlns="http://www.w3.org/2000/svg">
<path d="M14.7537 0.76709H5.36631C2.77286 0.76709 0.663025 2.87754 0.663025 5.47176V14.0624C0.663025 16.6566 2.77286 18.7671 5.36631 18.7671H14.7537C17.3472 18.7671 19.457 16.6566 19.457 14.0624V5.47176C19.457 2.87754 17.3472 0.76709 14.7537 0.76709ZM2.3222 5.47176C2.3222 3.79296 3.68801 2.42675 5.36631 2.42675H14.7537C16.432 2.42675 17.7978 3.79296 17.7978 5.47176V14.0624C17.7978 15.7412 16.432 17.1074 14.7537 17.1074H5.36631C3.68801 17.1074 2.3222 15.7412 2.3222 14.0624V5.47176Z" fill="white"/>
<path d="M10.06 14.1419C12.4717 14.1419 14.4349 12.1793 14.4349 9.76578C14.4349 7.35232 12.4728 5.38965 10.06 5.38965C7.64729 5.38965 5.6852 7.35232 5.6852 9.76578C5.6852 12.1793 7.64729 14.1419 10.06 14.1419ZM10.06 7.05037C11.5577 7.05037 12.7757 8.2688 12.7757 9.76685C12.7757 11.2649 11.5577 12.4833 10.06 12.4833C8.56244 12.4833 7.34437 11.2649 7.34437 9.76685C7.34437 8.2688 8.56244 7.05037 10.06 7.05037Z" fill="white"/>
<path d="M14.8399 6.09696C15.4893 6.09696 16.0186 5.56854 16.0186 4.91786C16.0186 4.26718 15.4903 3.73877 14.8399 3.73877C14.1894 3.73877 13.6611 4.26718 13.6611 4.91786C13.6611 5.56854 14.1894 6.09696 14.8399 6.09696Z" fill="white"/>
</svg>
