<svg width="24" height="24" viewBox="0 0 24 24" fill="none" xmlns="http://www.w3.org/2000/svg">
<path d="M18.8428 16.6455C19.0264 16.1614 19.5455 15.9022 20.0352 16.0332L20.1328 16.0654L20.4102 16.1748C21.0488 16.4384 21.6187 16.7524 22.0586 17.127C22.556 17.5506 22.9999 18.1545 23 18.9297C23 19.8278 22.4102 20.4929 21.8018 20.9346C21.1711 21.3923 20.3224 21.7625 19.3643 22.0566C17.4357 22.6487 14.8323 23 12 23C9.16769 23 6.5643 22.6487 4.63574 22.0566C3.67762 21.7625 2.82889 21.3923 2.19824 20.9346C1.62789 20.5206 1.07395 19.9103 1.00684 19.0957L1 18.9297L1.00488 18.7861C1.05562 18.0796 1.47511 17.524 1.94141 17.127C2.44399 16.699 3.11641 16.3503 3.86719 16.0654L3.96484 16.0332C4.45446 15.9022 4.97356 16.1614 5.15723 16.6455C5.35294 17.1617 5.09324 17.7386 4.57715 17.9346L4.13477 18.1172C3.72974 18.3002 3.43403 18.4828 3.23828 18.6494C3.05682 18.8039 3.01306 18.8992 3.00293 18.9297C3.01517 18.966 3.07691 19.1004 3.37305 19.3154C3.75445 19.5923 4.37116 19.8831 5.22266 20.1445C6.91336 20.6636 9.30966 21 12 21C14.6903 21 17.0866 20.6636 18.7773 20.1445C19.6288 19.8831 20.2456 19.5923 20.627 19.3154C20.9223 19.101 20.9836 18.9664 20.9961 18.9297C20.9858 18.8989 20.9426 18.8034 20.7617 18.6494C20.566 18.4828 20.2703 18.3002 19.8652 18.1172L19.4229 17.9346L19.3291 17.8936C18.8761 17.6668 18.6593 17.1294 18.8428 16.6455ZM12 5C13.6569 5 15 6.34315 15 8C15 9.65685 13.6569 11 12 11C10.3431 11 9 9.65685 9 8C9 6.34315 10.3431 5 12 5ZM12 7C11.4477 7 11 7.44772 11 8C11 8.55228 11.4477 9 12 9C12.5523 9 13 8.55228 13 8C13 7.44772 12.5523 7 12 7Z" fill="#3A73FF"/>
<path d="M12 1C16.3916 1 19.9999 4.19939 20 8.7998C20 12.2569 18.4938 14.8039 16.7812 16.4717C15.9289 17.3017 15.0194 17.9212 14.2041 18.3369C13.4231 18.7351 12.6229 19 12 19C11.3771 19 10.5769 18.7351 9.7959 18.3369C8.98059 17.9212 8.07107 17.3017 7.21875 16.4717C5.50624 14.8039 4 12.2569 4 8.7998C4.00013 4.19939 7.60841 1 12 1ZM12 3C8.61398 3 6.00013 5.40042 6 8.7998C6 11.624 7.21582 13.6772 8.61426 15.0391C9.31742 15.7238 10.0611 16.2269 10.7041 16.5547C11.3814 16.9 11.8452 17 12 17C12.1548 17 12.6186 16.9 13.2959 16.5547C13.9389 16.2269 14.6826 15.7238 15.3857 15.0391C16.7842 13.6772 18 11.624 18 8.7998C17.9999 5.40042 15.386 3 12 3Z" fill="white"/>
</svg>
