<svg width="20" height="19" viewBox="0 0 20 19" fill="none" xmlns="http://www.w3.org/2000/svg">
<path d="M1.46395 3.99292C1.0367 3.59623 0.824219 3.1052 0.824219 2.52097C0.824219 1.93673 1.03783 1.4241 1.46395 1.02627C1.89121 0.629577 2.44119 0.430664 3.11502 0.430664C3.78886 0.430664 4.31725 0.629577 4.74337 1.02627C5.17063 1.42296 5.3831 1.92195 5.3831 2.52097C5.3831 3.11998 5.16949 3.59623 4.74337 3.99292C4.31612 4.38961 3.77409 4.58853 3.11502 4.58853C2.45596 4.58853 1.89121 4.38961 1.46395 3.99292ZM5.02404 6.2685V18.4307H1.18215V6.2685H5.02404Z" fill="#FEFFFC"/>
<path d="M17.8133 7.46994C18.6507 8.37926 19.0689 9.62731 19.0689 11.2163V18.2158H15.4202V11.7097C15.4202 10.9083 15.2123 10.2854 14.7975 9.84213C14.3828 9.39883 13.8237 9.17605 13.1237 9.17605C12.4237 9.17605 11.8647 9.3977 11.4499 9.84213C11.0351 10.2854 10.8272 10.9083 10.8272 11.7097V18.2158H7.15692V6.2344H10.8272V7.82343C11.1988 7.29376 11.6999 6.87548 12.3294 6.56744C12.959 6.25941 13.6669 6.10596 14.4543 6.10596C15.8566 6.10596 16.9769 6.56062 17.8133 7.4688V7.46994Z" fill="#FEFFFC"/>
</svg>
