<svg width="24" height="24" viewBox="0 0 24 24" fill="none" xmlns="http://www.w3.org/2000/svg">
<rect width="24" height="24" fill="#D2D2D2"/>
<g id="Home page" clip-path="url(#clip0_0_1)">
<rect width="1440" height="6205" transform="translate(-136 -5534)" fill="black"/>
<g id="Frame 1000005941">
<g id="Footer">
<rect width="1440" height="1182" transform="translate(-136 -511)" fill="#2D3444"/>
<rect width="1440" height="1182" transform="translate(-136 -511)" fill="url(#paint0_radial_0_1)" fill-opacity="0.8" style="mix-blend-mode:soft-light"/>
<g id="Footer Content">
<g id="Footer Main">
<g id="Column">
<g id="Contact &#38; Newsletter">
<g id="Contact Details">
<g id="Links">
<g id="Phone" filter="url(#filter0_d_0_1)">
</g>
<g id="Phone_2" filter="url(#filter1_d_0_1)">
<g id="Icon/whatsapp" clip-path="url(#clip1_0_1)">
<g id="XMLID_468_">
<path id="XMLID_469_" d="M17.7588 13.7909C17.712 13.7685 15.9623 12.9069 15.6514 12.795C15.5245 12.7494 15.3885 12.7049 15.2439 12.7049C15.0076 12.7049 14.8092 12.8227 14.6546 13.0539C14.4798 13.3137 13.9507 13.9322 13.7872 14.117C13.7659 14.1413 13.7367 14.1705 13.7193 14.1705C13.7036 14.1705 13.4328 14.059 13.3509 14.0234C11.4739 13.2081 10.0493 11.2475 9.85395 10.9169C9.82605 10.8693 9.82488 10.8477 9.82465 10.8477C9.83151 10.8226 9.89462 10.7593 9.92719 10.7266C10.0225 10.6324 10.1257 10.5081 10.2256 10.3878C10.2729 10.3309 10.3203 10.2738 10.3668 10.2201C10.5118 10.0515 10.5763 9.92054 10.6511 9.76891L10.6903 9.69013C10.8729 9.32724 10.7169 9.02101 10.6665 8.92213C10.6251 8.83937 9.88636 7.05636 9.80782 6.86904C9.61893 6.41701 9.36935 6.20654 9.02252 6.20654C8.99034 6.20654 9.02252 6.20654 8.88756 6.21223C8.72322 6.21917 7.82828 6.33698 7.4326 6.58641C7.01299 6.85096 6.30312 7.69423 6.30312 9.17724C6.30312 10.512 7.15013 11.7722 7.51379 12.2515C7.52283 12.2636 7.53943 12.2881 7.56351 12.3233C8.95621 14.3573 10.6924 15.8646 12.4524 16.5677C14.1468 17.2445 14.9492 17.3227 15.4053 17.3227H15.4054C15.5971 17.3227 15.7505 17.3077 15.8859 17.2944L15.9718 17.2862C16.5571 17.2343 17.8435 16.5678 18.1361 15.7546C18.3665 15.1142 18.4273 14.4145 18.274 14.1605C18.1689 13.9878 17.9879 13.901 17.7588 13.7909Z" fill="#3A73FF"/>
<path id="XMLID_470_" d="M12.213 0C5.71307 0 0.424969 5.24836 0.424969 11.6995C0.424969 13.786 0.983359 15.8284 2.04115 17.6159L0.0165014 23.5883C-0.0212129 23.6996 0.00683904 23.8227 0.0892027 23.9066C0.148657 23.9673 0.229307 24 0.31167 24C0.343229 24 0.375021 23.9952 0.406034 23.9854L6.63357 22.0064C8.33772 22.917 10.2638 23.3976 12.2131 23.3976C18.7124 23.3977 24 18.1498 24 11.6995C24 5.24836 18.7124 0 12.213 0ZM12.213 20.9606C10.3788 20.9606 8.60227 20.4309 7.07515 19.4289C7.0238 19.3951 6.96419 19.3778 6.90419 19.3778C6.87248 19.3778 6.84068 19.3826 6.80975 19.3925L3.69014 20.3841L4.6972 17.413C4.72977 17.3169 4.71349 17.2108 4.65349 17.1288C3.49058 15.5398 2.87585 13.6625 2.87585 11.6995C2.87585 6.59221 7.06448 2.43709 12.2129 2.43709C17.3608 2.43709 21.5489 6.59221 21.5489 11.6995C21.549 16.8061 17.3609 20.9606 12.213 20.9606Z" fill="white"/>
</g>
</g>
</g>
</g>
</g>
</g>
</g>
</g>
</g>
</g>
</g>
</g>
<defs>
<filter id="filter0_d_0_1" x="-20" y="-48" width="180" height="64" filterUnits="userSpaceOnUse" color-interpolation-filters="sRGB">
<feFlood flood-opacity="0" result="BackgroundImageFix"/>
<feColorMatrix in="SourceAlpha" type="matrix" values="0 0 0 0 0 0 0 0 0 0 0 0 0 0 0 0 0 0 127 0" result="hardAlpha"/>
<feMorphology radius="4" operator="erode" in="SourceAlpha" result="effect1_dropShadow_0_1"/>
<feOffset dy="12"/>
<feGaussianBlur stdDeviation="12"/>
<feColorMatrix type="matrix" values="0 0 0 0 0.0862745 0 0 0 0 0.0862745 0 0 0 0 0.0862745 0 0 0 0.1 0"/>
<feBlend mode="normal" in2="BackgroundImageFix" result="effect1_dropShadow_0_1"/>
<feBlend mode="normal" in="SourceGraphic" in2="effect1_dropShadow_0_1" result="shape"/>
</filter>
<filter id="filter1_d_0_1" x="-20" y="-8" width="180" height="64" filterUnits="userSpaceOnUse" color-interpolation-filters="sRGB">
<feFlood flood-opacity="0" result="BackgroundImageFix"/>
<feColorMatrix in="SourceAlpha" type="matrix" values="0 0 0 0 0 0 0 0 0 0 0 0 0 0 0 0 0 0 127 0" result="hardAlpha"/>
<feMorphology radius="4" operator="erode" in="SourceAlpha" result="effect1_dropShadow_0_1"/>
<feOffset dy="12"/>
<feGaussianBlur stdDeviation="12"/>
<feColorMatrix type="matrix" values="0 0 0 0 0.0862745 0 0 0 0 0.0862745 0 0 0 0 0.0862745 0 0 0 0.1 0"/>
<feBlend mode="normal" in2="BackgroundImageFix" result="effect1_dropShadow_0_1"/>
<feBlend mode="normal" in="SourceGraphic" in2="effect1_dropShadow_0_1" result="shape"/>
</filter>
<radialGradient id="paint0_radial_0_1" cx="0" cy="0" r="1" gradientUnits="userSpaceOnUse" gradientTransform="translate(52.4999 -623.298) rotate(56.7138) scale(2270.32 2337.25)">
<stop stop-color="white"/>
<stop offset="1" stop-color="#2D3444" stop-opacity="0"/>
</radialGradient>
<clipPath id="clip0_0_1">
<rect width="1440" height="6205" fill="white" transform="translate(-136 -5534)"/>
</clipPath>
<clipPath id="clip1_0_1">
<rect width="24" height="24" fill="white"/>
</clipPath>
</defs>
</svg>
