<svg width="24" height="24" viewBox="0 0 24 24" fill="none" xmlns="http://www.w3.org/2000/svg">
<path d="M14 6C15.1279 6 16.0974 6.69766 16.7305 7.37402L16.9883 7.66895C17.2356 7.97207 17.4483 8.29521 17.6133 8.61621C17.8231 9.02448 18 9.51525 18 10C18 10.5523 17.5523 11 17 11C16.4477 11 16 10.5523 16 10V9.99707C15.9999 9.99529 15.9993 9.99256 15.999 9.98926C15.9984 9.98232 15.9972 9.9726 15.9951 9.95996C15.9907 9.93399 15.9829 9.89913 15.9697 9.85547C15.9431 9.76701 15.8989 9.65668 15.834 9.53027C15.7359 9.33945 15.602 9.13379 15.4404 8.93555L15.2695 8.74023C14.7929 8.23108 14.3172 8 14 8C13.4477 8 13 7.55228 13 7C13 6.44772 13.4477 6 14 6ZM14 3C17.866 3 21 6.13401 21 10C21 10.5523 20.5523 11 20 11C19.4477 11 19 10.5523 19 10C19 7.23858 16.7614 5 14 5C13.4477 5 13 4.55228 13 4C13 3.44772 13.4477 3 14 3Z" fill="#3A73FF"/>
<path d="M5.08888 0.999766C5.81474 0.999761 6.44365 0.984413 6.99708 1.19313L7.20704 1.28102C7.68745 1.50517 8.1009 1.85375 8.40431 2.29176L8.52247 2.48023C8.77666 2.93311 8.90069 3.4804 9.0547 4.09645L9.17775 4.5857C9.4193 5.55192 9.59908 6.242 9.62111 6.89918L9.62013 7.17945C9.59894 7.73164 9.48693 8.27637 9.2881 8.79078L9.19728 9.00855C8.89544 9.69149 8.393 10.2743 7.66017 11.1453L6.02443 13.0877C7.23387 14.956 8.7801 16.5353 10.6172 17.78L12.9649 16.0232C13.8156 15.3862 14.3852 14.9499 15.0371 14.6921L15.2461 14.615C15.736 14.4462 16.2496 14.3536 16.7686 14.3425L17.0313 14.3464C17.6478 14.3748 18.2921 14.5418 19.1943 14.7673L19.9033 14.9451C20.6077 15.1212 21.2217 15.2586 21.708 15.5955L21.8906 15.7322C22.302 16.0661 22.6186 16.5045 22.8067 17.0027L22.875 17.2127C23.0118 17.7107 23 18.2605 23 18.8806C23 19.3707 23.0012 19.8008 22.9707 20.1589C22.9428 20.4869 22.8848 20.8103 22.75 21.1296L22.6875 21.2664C22.3986 21.8486 21.857 22.3689 21.2568 22.655L20.9971 22.7625C20.4637 22.9503 19.9356 22.9362 19.3731 22.8767L18.7969 22.8084C15.753 22.4351 12.9943 21.523 10.6035 20.1336L10.1309 19.8494C7.72902 18.359 5.7331 16.3783 4.22657 13.991L3.93165 13.5086C2.59441 11.243 1.68979 8.64226 1.26954 5.77906L1.19142 5.20289C1.09491 4.41581 0.986773 3.714 1.23732 3.0027L1.34474 2.74293C1.6309 2.14278 2.15122 1.6012 2.73341 1.31227L2.86915 1.24977C3.18632 1.11553 3.50661 1.05822 3.83204 1.03004C4.18596 0.999426 4.60909 0.999766 5.08888 0.999766ZM16.8106 16.3425C16.5439 16.3483 16.2795 16.3892 16.0244 16.4646L15.7725 16.5515C15.428 16.6877 15.102 16.9208 14.1631 17.6238L12.4844 18.8796C14.4198 19.8607 16.6172 20.5259 19.0401 20.823L19.6192 20.8894C20.075 20.9351 20.2021 20.9224 20.332 20.8767L20.4121 20.8416C20.6026 20.7462 20.8091 20.5517 20.8955 20.3777L20.917 20.3269C20.9392 20.2654 20.9624 20.167 20.9776 19.989C20.9991 19.7352 21 19.4041 21 18.8806C21 18.2284 20.9908 17.968 20.9658 17.824L20.9356 17.7087C20.8818 17.5663 20.7962 17.4384 20.6865 17.3347L20.5693 17.239C20.456 17.1606 20.2841 17.102 19.418 16.8855L18.71 16.7078C17.7142 16.4588 17.2906 16.3601 16.9522 16.3445L16.8106 16.3425ZM5.08888 2.99977C4.57494 2.99977 4.2519 3.00076 4.00392 3.02223C3.83156 3.03716 3.73556 3.05936 3.67384 3.0818L3.62208 3.10426C3.44808 3.19065 3.25358 3.39715 3.15822 3.58766L3.12306 3.66773C3.0621 3.84099 3.06029 4.0098 3.17677 4.95973L3.24806 5.48805C3.55576 7.585 4.14331 9.50653 4.97657 11.2273L6.1299 9.85719C6.93886 8.89576 7.20877 8.56149 7.36818 8.20094L7.46974 7.93629C7.55926 7.66765 7.61115 7.38719 7.62208 7.10328V6.95289C7.60992 6.59211 7.50409 6.13815 7.23732 5.07105L7.11427 4.5818C6.95168 3.93145 6.87826 3.67243 6.81837 3.5359L6.76075 3.43043C6.67407 3.30531 6.56027 3.20165 6.42872 3.1277L6.29103 3.06422C6.16212 3.01569 5.98104 2.99977 5.08888 2.99977Z" fill="white"/>
</svg>
