<svg width="21" height="15" viewBox="0 0 21 15" fill="none" xmlns="http://www.w3.org/2000/svg">
<path d="M20.2834 4.51669C20.1601 3.32626 19.8948 2.0103 18.9183 1.31873C18.162 0.782434 17.1678 0.762608 16.2398 0.763709C14.278 0.763709 12.3151 0.767017 10.3533 0.768118C8.46632 0.770321 6.57937 0.771421 4.69243 0.773623C3.90418 0.773623 3.13795 0.713054 2.40585 1.05443C1.77724 1.34736 1.28514 1.90458 0.988994 2.52457C0.578358 3.38683 0.492492 4.36362 0.442951 5.31728C0.351576 7.05391 0.361484 8.79494 0.470473 10.5305C0.550839 11.7969 0.754503 13.1965 1.7332 14.0037C2.60071 14.7184 3.82491 14.7537 4.95003 14.7548C8.52136 14.7581 12.0938 14.7614 15.6662 14.7636C16.1242 14.7647 16.602 14.7559 17.0688 14.7052C17.9869 14.6061 18.8621 14.3429 19.4522 13.6624C20.0478 12.9763 20.2008 12.0215 20.2911 11.1174C20.5113 8.92379 20.5091 6.70923 20.2834 4.51669ZM8.28797 10.8388V4.68848L13.6119 7.7631L8.28797 10.8388Z" fill="white"/>
</svg>
