<svg width="24" height="24" viewBox="0 0 24 24" fill="none" xmlns="http://www.w3.org/2000/svg">
<path d="M17.5331 7.11552C17.9811 6.87849 18.5448 7.01482 18.832 7.4456C19.1192 7.87652 19.0281 8.44952 18.6366 8.77177L18.5546 8.83232L17.5546 9.49931C16.0966 10.4713 15.1714 11.0983 14.2118 11.429L14.0195 11.4915C12.7848 11.8635 11.4727 11.8873 10.2284 11.5618L9.98039 11.4915C9.207 11.2584 8.47993 10.8377 7.50871 10.2044L6.44524 9.49931L5.44524 8.83232L5.36321 8.77177C4.97181 8.44954 4.88073 7.87651 5.16789 7.4456C5.45508 7.01482 6.01877 6.87849 6.46672 7.11552L6.55461 7.16825L7.55461 7.83525L8.63078 8.54618C9.55025 9.14402 10.0491 9.42327 10.5575 9.57646L10.913 9.66923C11.7481 9.85524 12.6192 9.82443 13.4423 9.57646L13.6982 9.48857C14.3015 9.25457 14.9899 8.80549 16.4452 7.83525L17.4452 7.16825L17.5331 7.11552Z" fill="#3A73FF"/>
<path d="M14 2C15.3835 2 16.4813 1.99909 17.3652 2.07129C18.2608 2.14446 19.0244 2.29805 19.7236 2.6543L19.9336 2.76563C20.9667 3.34459 21.8065 4.21805 22.3457 5.27637L22.4707 5.54102C22.7397 6.16793 22.8647 6.85102 22.9287 7.63477C23.0009 8.51866 23 9.61647 23 11V13C23 14.3835 23.0009 15.4813 22.9287 16.3652C22.8647 17.149 22.7397 17.8321 22.4707 18.459L22.3457 18.7236C21.8065 19.7819 20.9667 20.6554 19.9336 21.2344L19.7236 21.3457C19.0244 21.7019 18.2608 21.8555 17.3652 21.9287C16.4813 22.0009 15.3835 22 14 22H10C8.61647 22 7.51866 22.0009 6.63477 21.9287C5.85102 21.8647 5.16793 21.7397 4.54102 21.4707L4.27637 21.3457C3.21805 20.8065 2.34459 19.9667 1.76563 18.9336L1.6543 18.7236C1.29805 18.0244 1.14446 17.2608 1.07129 16.3652C0.999086 15.4813 1 14.3835 1 13V11C1 9.61647 0.999086 8.51866 1.07129 7.63477C1.14446 6.73921 1.29805 5.97558 1.6543 5.27637L1.76563 5.06641C2.34459 4.03334 3.21805 3.19354 4.27637 2.6543L4.54102 2.5293C5.16793 2.26025 5.85102 2.13532 6.63477 2.07129C7.51866 1.99909 8.61647 2 10 2H14ZM10 4C8.58363 4 7.58138 4.00047 6.79785 4.06445C6.02593 4.12752 5.55391 4.24686 5.18359 4.43555C4.43109 4.81902 3.81902 5.43109 3.43555 6.18359C3.24686 6.55391 3.12752 7.02593 3.06445 7.79785C3.00047 8.58138 3 9.58363 3 11V13C3 14.4164 3.00047 15.4186 3.06445 16.2021C3.12752 16.9741 3.24686 17.4461 3.43555 17.8164L3.58984 18.0918C3.97413 18.7183 4.52512 19.2289 5.18359 19.5645L5.32813 19.6318C5.67692 19.7819 6.12254 19.8804 6.79785 19.9355C7.58138 19.9995 8.58363 20 10 20H14C15.4164 20 16.4186 19.9995 17.2021 19.9355C17.9741 19.8725 18.4461 19.7531 18.8164 19.5645L19.0918 19.4102C19.7183 19.0259 20.2289 18.4749 20.5645 17.8164L20.6318 17.6719C20.7819 17.3231 20.8804 16.8775 20.9355 16.2021C20.9995 15.4186 21 14.4164 21 13V11C21 9.58363 20.9995 8.58138 20.9355 7.79785C20.8804 7.12254 20.7819 6.67692 20.6318 6.32813L20.5645 6.18359C20.2289 5.52512 19.7183 4.97413 19.0918 4.58984L18.8164 4.43555C18.4461 4.24686 17.9741 4.12752 17.2021 4.06445C16.4186 4.00047 15.4164 4 14 4H10Z" fill="white"/>
</svg>
