<svg width="17" height="19" viewBox="0 0 17 19" fill="none" xmlns="http://www.w3.org/2000/svg">
<path d="M16.5658 4.72071V7.82316C16.0237 7.77021 15.3194 7.64704 14.5403 7.36154C13.5229 6.98856 12.7657 6.47857 12.2696 6.08372V12.3542L12.257 12.3347C12.265 12.459 12.2696 12.5856 12.2696 12.7134C12.2696 15.8274 9.73661 18.3623 6.62241 18.3623C3.50821 18.3623 0.975189 15.8274 0.975189 12.7134C0.975189 9.59945 3.50821 7.06338 6.62241 7.06338C6.92739 7.06338 7.22661 7.08755 7.51893 7.13475V10.1923C7.23812 10.0922 6.93659 10.0381 6.62241 10.0381C5.14817 10.0381 3.94784 11.2376 3.94784 12.7134C3.94784 14.1892 5.14817 15.3888 6.62241 15.3888C8.09665 15.3888 9.29699 14.1881 9.29699 12.7134C9.29699 12.6582 9.29584 12.6029 9.29239 12.5476V0.362305H12.3916C12.4031 0.624776 12.4135 0.889555 12.425 1.15203C12.4457 1.66891 12.6298 2.16507 12.9509 2.57144C13.3273 3.04918 13.8831 3.60405 14.6634 4.04726C15.3942 4.46054 16.0801 4.63897 16.5658 4.72301V4.72071Z" fill="white"/>
</svg>
