<svg width="29" height="29" viewBox="0 0 29 29" fill="none" xmlns="http://www.w3.org/2000/svg">
<path d="M13.2464 5.57132C13.641 4.35692 15.359 4.35692 15.7536 5.57133L17.1635 9.91033C17.3399 10.4534 17.846 10.8211 18.4171 10.8211H22.9794C24.2563 10.8211 24.7872 12.4551 23.7541 13.2056L20.0632 15.8873C19.6012 16.2229 19.4079 16.8179 19.5843 17.361L20.9942 21.7C21.3887 22.9144 19.9988 23.9243 18.9658 23.1737L15.2748 20.4921C14.8128 20.1564 14.1872 20.1564 13.7252 20.4921L10.0343 23.1737C9.00123 23.9243 7.61129 22.9144 8.00587 21.7L9.4157 17.361C9.59216 16.8179 9.39885 16.2229 8.93686 15.8873L5.24589 13.2056C4.21286 12.4551 4.74377 10.8211 6.02066 10.8211H10.583C11.154 10.8211 11.6601 10.4534 11.8366 9.91033L13.2464 5.57132Z" fill="#FAD23A"/>
</svg>
