<svg width="114" height="45" viewBox="0 0 114 45" fill="none" xmlns="http://www.w3.org/2000/svg">
<g clip-path="url(#clip0_1_862)">
<path d="M0 12.6755V9.17881H3.26144V7.83841C3.26144 5.36159 3.87846 3.43841 5.11252 2.06888C6.34658 0.699339 8.1389 0.0291405 10.4895 0.0291405H12.3406V4.25431H10.4895C8.6384 4.25431 7.69816 5.44901 7.69816 7.86755V9.20795H11.3416V12.7338H7.69816V26.0212H3.26144V12.6755H0Z" fill="white"/>
<path d="M13.3983 17.5417C13.3983 16.2305 13.6334 15.0066 14.1329 13.8993C14.603 12.7921 15.2494 11.8596 16.0721 11.1311C16.8948 10.4027 17.8057 9.81987 18.8634 9.41192C19.9212 9.00398 20.979 8.8 22.1249 8.8C23.0651 8.8 24.0347 9.00398 25.0337 9.38278C26.0327 9.76159 26.826 10.4027 27.3843 11.2477V9.17881H31.821V25.9921H27.3843V23.8066C26.8848 24.6225 26.1209 25.2344 25.0925 25.6424C24.0641 26.0795 23.0651 26.2834 22.1249 26.2834C20.597 26.2834 19.1866 25.9338 17.8644 25.2344C16.5422 24.5351 15.4845 23.5152 14.6324 22.1457C13.8097 20.8053 13.3983 19.2901 13.3983 17.5417ZM18.0701 17.5417C18.0701 18.853 18.5402 19.9311 19.4805 20.7762C20.4207 21.6212 21.5078 22.0583 22.7713 22.0583C24.0347 22.0583 25.1219 21.6503 26.0327 20.8344C26.9436 20.0185 27.4137 18.9113 27.4137 17.5417C27.4137 16.1722 26.9436 15.0649 26.0327 14.249C25.1219 13.4331 24.0347 13.0252 22.7713 13.0252C21.5078 13.0252 20.4207 13.4623 19.4805 14.3073C18.5109 15.1523 18.0701 16.2305 18.0701 17.5417Z" fill="white"/>
<path d="M35.6701 17.4834C35.6701 16.2013 35.9052 15.0066 36.4341 13.8993C36.9336 12.7921 37.6093 11.8887 38.4614 11.1311C39.3135 10.3735 40.2831 9.81987 41.3997 9.38278C42.5162 8.97484 43.6621 8.77086 44.8962 8.77086C46.3359 8.77086 47.6581 9.06225 48.8922 9.6159C50.1262 10.1695 51.1546 10.9854 51.9479 12.0053L48.4514 14.6278C48.0694 14.1033 47.5406 13.6954 46.9235 13.404C46.3065 13.1126 45.6307 12.9669 44.9255 12.9669C43.6327 12.9669 42.5162 13.3748 41.576 14.2199C40.6357 15.0358 40.1656 16.1139 40.1656 17.4543C40.1656 18.7947 40.6357 19.902 41.576 20.7762C42.5162 21.6503 43.6327 22.0874 44.9255 22.0874C45.6307 22.0874 46.2771 21.9417 46.9235 21.6503C47.57 21.3589 48.0694 20.951 48.4514 20.3974L52.0067 22.9907C51.2134 24.0397 50.185 24.8556 48.9509 25.4384C47.7169 26.0212 46.3653 26.3126 44.9255 26.3126C43.3095 26.3126 41.811 25.9629 40.4007 25.2344C38.9903 24.506 37.8738 23.457 37.0217 22.0874C36.1109 20.747 35.6701 19.2026 35.6701 17.4834Z" fill="white"/>
<path d="M55.5326 22.1457C54.7392 20.8053 54.3279 19.2609 54.3279 17.5417C54.3279 15.8225 54.7392 14.2781 55.5326 12.9377C56.3259 11.5974 57.3836 10.5775 58.7352 9.87815C60.0574 9.17881 61.5265 8.82914 63.1426 8.82914C65.6107 8.82914 67.6381 9.64503 69.2835 11.2477C70.9289 12.8503 71.7516 14.9483 71.7516 17.5709C71.7516 18.0371 71.7222 18.5324 71.6928 19.0861H58.7646C58.9115 20.1934 59.411 21.0675 60.2631 21.7377C61.1152 22.3788 62.173 22.7285 63.4364 22.7285C64.3472 22.7285 65.17 22.5245 65.9633 22.1748C66.7566 21.8252 67.3149 21.2715 67.6968 20.5722C68.1082 20.8053 68.6958 21.1258 69.5185 21.5629C70.3412 22 70.8407 22.2623 71.0464 22.3788C70.3119 23.7483 69.2541 24.7391 67.8144 25.4093C66.3746 26.0795 64.8174 26.4291 63.1426 26.4291C61.5265 26.4291 60.0574 26.0795 58.7352 25.351C57.413 24.5351 56.3259 23.4861 55.5326 22.1457ZM58.7058 16.0556H67.403C67.2561 14.9192 66.786 14.045 66.022 13.4331C65.2581 12.7921 64.2885 12.5007 63.172 12.5007C61.9967 12.5007 60.9977 12.8212 60.175 13.4623C59.3523 14.045 58.8528 14.9192 58.7058 16.0556Z" fill="white"/>
<path d="M74.1022 20.6887H78.2451C78.3038 21.3007 78.6271 21.8252 79.2441 22.2331C79.8611 22.6411 80.5663 22.845 81.3596 22.8159C81.9766 22.7868 82.5055 22.6119 82.9462 22.3205C83.387 22 83.5927 21.6212 83.5927 21.1258C83.622 20.3391 83.0638 19.8146 81.9179 19.5232L79.5967 18.9695C78.7446 18.7364 78.01 18.4742 77.393 18.1536C76.776 17.8331 76.3058 17.5417 75.9826 17.2212C75.6594 16.9007 75.395 16.551 75.1893 16.143C75.013 15.7351 74.8661 15.3563 74.8367 15.0358C74.8073 14.7152 74.778 14.3073 74.778 13.8411C74.778 12.4715 75.3656 11.306 76.5703 10.2861C77.775 9.26623 79.1853 8.77086 80.8307 8.77086C81.6828 8.77086 82.5055 8.85828 83.2401 9.06225C84.004 9.26623 84.7092 9.55762 85.3556 9.96556C86.002 10.3735 86.5309 10.9272 86.9129 11.6265C87.2948 12.3258 87.5299 13.1417 87.5593 14.0742H83.2107C83.1813 13.5205 82.9169 13.0834 82.4761 12.8212C82.006 12.5298 81.5065 12.3841 80.9189 12.3841C80.3018 12.3841 79.773 12.5007 79.391 12.7629C78.9796 13.0252 78.774 13.4331 78.774 14.0159C78.774 14.3364 78.9503 14.6278 79.3322 14.8609C79.6848 15.094 80.1843 15.298 80.7426 15.4146L83.5927 16.0848C84.3272 16.2596 84.9736 16.5219 85.5319 16.8715C86.0902 17.2212 86.5309 17.5417 86.8247 17.8914C87.1185 18.2411 87.383 18.649 87.5593 19.057C87.7356 19.4649 87.8531 19.8437 87.9119 20.1642C87.9706 20.4848 88 20.8053 88 21.0967C88 22.1748 87.6474 23.1364 86.9716 23.9232C86.2958 24.7391 85.4144 25.3219 84.3566 25.7007C83.2988 26.0795 82.1529 26.2543 80.9189 26.2543C79.1559 26.2543 77.5693 25.7298 76.2177 24.7391C74.8367 23.7775 74.1316 22.4079 74.1022 20.6887Z" fill="white"/>
<path d="M45.1606 35.2C40.812 35.2 36.7279 33.5099 33.6427 30.4795L36.581 27.5656C38.8728 29.8384 41.9285 31.0914 45.1606 31.0914C48.3927 31.0914 51.4484 29.8384 53.7402 27.5656L56.6785 30.4795C53.5933 33.5391 49.5092 35.2 45.1606 35.2Z" fill="white"/>
</g>
<path d="M61.5437 41.2V32.4727H63.359V35.754H63.4144C63.494 35.5778 63.609 35.3989 63.7596 35.217C63.913 35.0324 64.1119 34.879 64.3562 34.7568C64.6033 34.6318 64.9102 34.5693 65.2766 34.5693C65.7539 34.5693 66.1942 34.6943 66.5977 34.9443C67.0011 35.1915 67.3235 35.5651 67.565 36.0651C67.8065 36.5622 67.9272 37.1858 67.9272 37.9358C67.9272 38.6659 67.8093 39.2824 67.5735 39.7852C67.3406 40.2852 67.0224 40.6645 66.619 40.923C66.2184 41.1787 65.7695 41.3065 65.2724 41.3065C64.9201 41.3065 64.6204 41.2483 64.3732 41.1318C64.1289 41.0153 63.9286 40.869 63.7724 40.6929C63.6161 40.5139 63.4968 40.3335 63.4144 40.1517H63.3335V41.2H61.5437ZM63.3207 37.9273C63.3207 38.3165 63.3746 38.656 63.4826 38.9457C63.5906 39.2355 63.7468 39.4614 63.9513 39.6233C64.1559 39.7824 64.4045 39.8619 64.6971 39.8619C64.9925 39.8619 65.2425 39.781 65.4471 39.619C65.6516 39.4543 65.8065 39.227 65.9116 38.9372C66.0195 38.6446 66.0735 38.308 66.0735 37.9273C66.0735 37.5494 66.021 37.217 65.9158 36.9301C65.8107 36.6432 65.6559 36.4187 65.4513 36.2568C65.2468 36.0949 64.9954 36.0139 64.6971 36.0139C64.4016 36.0139 64.1516 36.092 63.9471 36.2483C63.7454 36.4045 63.5906 36.6261 63.4826 36.9131C63.3746 37.2 63.3207 37.5381 63.3207 37.9273ZM73.3359 38.4131V34.6545H75.1513V41.2H73.4084V40.0111H73.3402C73.1925 40.3946 72.9467 40.7028 72.603 40.9358C72.2621 41.1687 71.8459 41.2852 71.3544 41.2852C70.9169 41.2852 70.532 41.1858 70.1996 40.9869C69.8672 40.7881 69.6072 40.5054 69.4197 40.1389C69.2351 39.7724 69.1413 39.3335 69.1385 38.8222V34.6545H70.9538V38.4983C70.9567 38.8847 71.0604 39.1901 71.2649 39.4145C71.4695 39.6389 71.7436 39.7511 72.0874 39.7511C72.3061 39.7511 72.5107 39.7014 72.701 39.602C72.8913 39.4997 73.0447 39.3491 73.1612 39.1503C73.2805 38.9514 73.3388 38.7057 73.3359 38.4131ZM82.0494 36.521L80.3874 36.6233C80.359 36.4812 80.2979 36.3534 80.2042 36.2398C80.1104 36.1233 79.9869 36.031 79.8335 35.9628C79.6829 35.8918 79.5025 35.8562 79.2923 35.8562C79.011 35.8562 78.7738 35.9159 78.5806 36.0352C78.3874 36.1517 78.2908 36.308 78.2908 36.504C78.2908 36.6602 78.3533 36.7923 78.4783 36.9003C78.6033 37.0082 78.8178 37.0949 79.1218 37.1602L80.3065 37.3989C80.9428 37.5295 81.4173 37.7398 81.7298 38.0295C82.0423 38.3193 82.1985 38.7 82.1985 39.1716C82.1985 39.6006 82.0721 39.977 81.8192 40.3008C81.5692 40.6247 81.2255 40.8776 80.788 41.0594C80.3533 41.2383 79.8519 41.3278 79.2837 41.3278C78.4173 41.3278 77.7269 41.1474 77.2127 40.7866C76.7013 40.423 76.4016 39.9287 76.3136 39.3037L78.0991 39.2099C78.1531 39.4741 78.2837 39.6758 78.4911 39.8151C78.6985 39.9514 78.9641 40.0196 79.288 40.0196C79.6062 40.0196 79.8619 39.9585 80.055 39.8364C80.2511 39.7114 80.3505 39.5508 80.3533 39.3548C80.3505 39.1901 80.2809 39.0551 80.1445 38.95C80.0082 38.842 79.7979 38.7597 79.5138 38.7028L78.3803 38.477C77.7411 38.3491 77.2653 38.1276 76.9528 37.8122C76.6431 37.4969 76.4883 37.0949 76.4883 36.6062C76.4883 36.1858 76.6019 35.8236 76.8292 35.5196C77.0593 35.2156 77.3817 34.9812 77.7965 34.8165C78.2141 34.6517 78.7028 34.5693 79.2624 34.5693C80.0891 34.5693 80.7397 34.744 81.2141 35.0935C81.6914 35.4429 81.9698 35.9187 82.0494 36.521ZM83.3416 41.2V34.6545H85.157V41.2H83.3416ZM84.2536 33.8108C83.9837 33.8108 83.7521 33.7213 83.5589 33.5423C83.3686 33.3605 83.2734 33.1432 83.2734 32.8903C83.2734 32.6403 83.3686 32.4258 83.5589 32.2469C83.7521 32.0651 83.9837 31.9741 84.2536 31.9741C84.5234 31.9741 84.7536 32.0651 84.9439 32.2469C85.1371 32.4258 85.2337 32.6403 85.2337 32.8903C85.2337 33.1432 85.1371 33.3605 84.9439 33.5423C84.7536 33.7213 84.5234 33.8108 84.2536 33.8108ZM88.4265 37.4159V41.2H86.6112V34.6545H88.3413V35.8094H88.418C88.5629 35.4287 88.8058 35.1276 89.1467 34.906C89.4876 34.6815 89.9009 34.5693 90.3867 34.5693C90.8413 34.5693 91.2376 34.6687 91.5756 34.8676C91.9137 35.0665 92.1765 35.3506 92.364 35.7199C92.5515 36.0864 92.6452 36.5239 92.6452 37.0324V41.2H90.8299V37.3562C90.8327 36.9557 90.7305 36.6432 90.5231 36.4187C90.3157 36.1915 90.0302 36.0778 89.6665 36.0778C89.4222 36.0778 89.2063 36.1304 89.0188 36.2355C88.8342 36.3406 88.6893 36.494 88.5842 36.6957C88.4819 36.8946 88.4293 37.1347 88.4265 37.4159ZM97.0589 41.3278C96.3857 41.3278 95.8061 41.1915 95.3203 40.9187C94.8374 40.6432 94.4652 40.254 94.2038 39.7511C93.9425 39.2455 93.8118 38.6474 93.8118 37.9571C93.8118 37.2838 93.9425 36.6929 94.2038 36.1844C94.4652 35.6758 94.8331 35.2795 95.3075 34.9955C95.7848 34.7114 96.3445 34.5693 96.9865 34.5693C97.4183 34.5693 97.8203 34.6389 98.1925 34.7781C98.5675 34.9145 98.8942 35.1205 99.1726 35.396C99.4538 35.6716 99.6726 36.0182 99.8288 36.4358C99.9851 36.8506 100.063 37.3364 100.063 37.8932V38.3918H94.5362V37.2668H98.3544C98.3544 37.0054 98.2976 36.7739 98.1839 36.5722C98.0703 36.3705 97.9126 36.2128 97.7109 36.0991C97.5121 35.9827 97.2805 35.9244 97.0163 35.9244C96.7408 35.9244 96.4964 35.9883 96.2834 36.1162C96.0732 36.2412 95.9084 36.4102 95.7891 36.6233C95.6697 36.8335 95.6087 37.0679 95.6058 37.3264V38.396C95.6058 38.7199 95.6655 38.9997 95.7848 39.2355C95.907 39.4713 96.0788 39.6531 96.3004 39.781C96.522 39.9088 96.7848 39.9727 97.0888 39.9727C97.2905 39.9727 97.4751 39.9443 97.6428 39.8875C97.8104 39.8307 97.9538 39.7455 98.0732 39.6318C98.1925 39.5182 98.2834 39.379 98.3459 39.2142L100.025 39.325C99.9396 39.7284 99.7649 40.0807 99.5007 40.3818C99.2393 40.6801 98.9013 40.9131 98.4865 41.0807C98.0746 41.2455 97.5987 41.3278 97.0589 41.3278ZM106.694 36.521L105.032 36.6233C105.004 36.4812 104.942 36.3534 104.849 36.2398C104.755 36.1233 104.631 36.031 104.478 35.9628C104.327 35.8918 104.147 35.8562 103.937 35.8562C103.656 35.8562 103.418 35.9159 103.225 36.0352C103.032 36.1517 102.935 36.308 102.935 36.504C102.935 36.6602 102.998 36.7923 103.123 36.9003C103.248 37.0082 103.462 37.0949 103.766 37.1602L104.951 37.3989C105.587 37.5295 106.062 37.7398 106.374 38.0295C106.687 38.3193 106.843 38.7 106.843 39.1716C106.843 39.6006 106.717 39.977 106.464 40.3008C106.214 40.6247 105.87 40.8776 105.433 41.0594C104.998 41.2383 104.496 41.3278 103.928 41.3278C103.062 41.3278 102.371 41.1474 101.857 40.7866C101.346 40.423 101.046 39.9287 100.958 39.3037L102.744 39.2099C102.798 39.4741 102.928 39.6758 103.136 39.8151C103.343 39.9514 103.609 40.0196 103.933 40.0196C104.251 40.0196 104.506 39.9585 104.7 39.8364C104.896 39.7114 104.995 39.5508 104.998 39.3548C104.995 39.1901 104.925 39.0551 104.789 38.95C104.653 38.842 104.442 38.7597 104.158 38.7028L103.025 38.477C102.386 38.3491 101.91 38.1276 101.597 37.8122C101.288 37.4969 101.133 37.0949 101.133 36.6062C101.133 36.1858 101.246 35.8236 101.474 35.5196C101.704 35.2156 102.026 34.9812 102.441 34.8165C102.859 34.6517 103.347 34.5693 103.907 34.5693C104.734 34.5693 105.384 34.744 105.859 35.0935C106.336 35.4429 106.614 35.9187 106.694 36.521ZM113.432 36.521L111.77 36.6233C111.742 36.4812 111.681 36.3534 111.587 36.2398C111.493 36.1233 111.37 36.031 111.216 35.9628C111.066 35.8918 110.885 35.8562 110.675 35.8562C110.394 35.8562 110.157 35.9159 109.963 36.0352C109.77 36.1517 109.674 36.308 109.674 36.504C109.674 36.6602 109.736 36.7923 109.861 36.9003C109.986 37.0082 110.201 37.0949 110.505 37.1602L111.689 37.3989C112.326 37.5295 112.8 37.7398 113.113 38.0295C113.425 38.3193 113.581 38.7 113.581 39.1716C113.581 39.6006 113.455 39.977 113.202 40.3008C112.952 40.6247 112.608 40.8776 112.171 41.0594C111.736 41.2383 111.235 41.3278 110.667 41.3278C109.8 41.3278 109.11 41.1474 108.596 40.7866C108.084 40.423 107.784 39.9287 107.696 39.3037L109.482 39.2099C109.536 39.4741 109.667 39.6758 109.874 39.8151C110.081 39.9514 110.347 40.0196 110.671 40.0196C110.989 40.0196 111.245 39.9585 111.438 39.8364C111.634 39.7114 111.733 39.5508 111.736 39.3548C111.733 39.1901 111.664 39.0551 111.527 38.95C111.391 38.842 111.181 38.7597 110.897 38.7028L109.763 38.477C109.124 38.3491 108.648 38.1276 108.336 37.8122C108.026 37.4969 107.871 37.0949 107.871 36.6062C107.871 36.1858 107.985 35.8236 108.212 35.5196C108.442 35.2156 108.765 34.9812 109.179 34.8165C109.597 34.6517 110.086 34.5693 110.645 34.5693C111.472 34.5693 112.123 34.744 112.597 35.0935C113.074 35.4429 113.353 35.9187 113.432 36.521Z" fill="white"/>
<defs>
<clipPath id="clip0_1_862">
<rect width="88" height="35.2" fill="white"/>
</clipPath>
</defs>
</svg>
