<svg width="60" height="28" viewBox="0 0 60 28" fill="none" xmlns="http://www.w3.org/2000/svg">
<path d="M15.815 5.27368H21.8565V6.4355H19.5328V12.7093H18.1386V6.4355H15.815V5.27368ZM21.5079 7.24877H22.6697V8.29441C22.6697 8.17823 22.7859 8.06205 22.9021 7.82968C23.0183 7.59732 23.1345 7.59732 23.2506 7.48114C23.3668 7.36496 23.5992 7.24877 23.7154 7.24877C23.8316 7.13259 24.0639 7.13259 24.2963 7.13259C24.4125 7.13259 24.5287 7.13259 24.5287 7.13259H24.6448V8.29441C24.5287 8.29441 24.5287 8.29441 24.4125 8.29441C24.2963 8.29441 24.2963 8.29441 24.1801 8.29441C23.9477 8.29441 23.8316 8.29441 23.5992 8.41059C23.3668 8.52678 23.2506 8.64296 23.1345 8.75914C23.0183 8.87532 22.9021 9.10769 22.7859 9.34005C22.6697 9.57241 22.6697 9.80478 22.6697 10.1533V12.7093H21.5079V7.24877ZM30.1054 12.7093H28.9436V12.0122C28.8274 12.2446 28.595 12.477 28.2465 12.7093C28.0141 12.8255 27.6656 12.9417 27.317 12.9417C26.6199 12.9417 26.1552 12.8255 25.8067 12.3608C25.4581 11.8961 25.3419 11.4313 25.3419 10.7342V7.36496H26.5037V10.6181C26.5037 11.0828 26.6199 11.4313 26.7361 11.6637C26.9685 11.8961 27.2008 12.0122 27.5494 12.0122C27.7817 12.0122 28.0141 12.0122 28.1303 11.8961C28.2465 11.7799 28.4788 11.6637 28.4788 11.5475C28.595 11.4313 28.7112 11.3151 28.7112 11.0828C28.7112 10.8504 28.8274 10.7342 28.8274 10.5019V7.36496H29.9892V12.7093H30.1054ZM32.0805 10.9666C32.0805 11.3151 32.1967 11.5475 32.429 11.6637C32.6614 11.7799 32.8938 11.8961 33.2423 11.8961C33.3585 11.8961 33.4747 11.8961 33.5908 11.8961C33.707 11.8961 33.8232 11.8961 33.9394 11.7799C34.0556 11.7799 34.1718 11.6637 34.2879 11.5475C34.4041 11.4313 34.4041 11.3151 34.4041 11.199C34.4041 11.0828 34.2879 10.9666 34.2879 10.8504C34.1718 10.7342 34.0556 10.7342 33.9394 10.6181C33.8232 10.6181 33.5908 10.5019 33.3585 10.5019C33.1261 10.5019 32.8938 10.3857 32.7776 10.3857C32.5452 10.3857 32.3128 10.2695 32.1967 10.1533C32.0805 10.0371 31.8481 10.0371 31.6158 9.92096C31.4996 9.80478 31.2672 9.6886 31.2672 9.45623C31.151 9.22387 31.151 8.9915 31.151 8.75914C31.151 8.41059 31.2672 8.17823 31.3834 8.06205C31.4996 7.94587 31.7319 7.7135 31.9643 7.59732C32.1967 7.48114 32.429 7.36496 32.6614 7.36496C32.8938 7.36496 33.2423 7.24877 33.4747 7.24877C33.707 7.24877 34.0556 7.24877 34.2879 7.36496C34.5203 7.36496 34.7527 7.48114 34.985 7.59732C35.2174 7.7135 35.3336 7.94587 35.4498 8.06205C35.5659 8.29441 35.6821 8.52678 35.6821 8.87532H34.4041C34.4041 8.64296 34.1718 8.4106 34.0556 8.29441C33.707 8.17823 33.4747 8.06205 33.2423 8.06205C33.1261 8.06205 33.0099 8.06205 32.8938 8.06205C32.7776 8.06205 32.6614 8.06205 32.5452 8.17823C32.429 8.17823 32.3128 8.29441 32.3128 8.29441C32.1967 8.4106 32.1967 8.41059 32.1967 8.52678C32.1967 8.64296 32.1967 8.75914 32.3128 8.87532C32.429 8.99151 32.5452 8.9915 32.6614 9.10769C32.7776 9.10769 33.0099 9.22387 33.2423 9.22387C33.4747 9.22387 33.707 9.34005 33.9394 9.34005C34.1718 9.34005 34.4041 9.45623 34.5203 9.57241C34.7527 9.6886 34.8688 9.6886 35.1012 9.80478C35.3336 9.92096 35.4498 10.0371 35.4498 10.2695C35.5659 10.5019 35.5659 10.6181 35.5659 10.9666C35.5659 11.3151 35.4498 11.5475 35.3336 11.7799C35.2174 12.0122 34.985 12.1284 34.7527 12.3608C34.6365 12.5931 34.4041 12.7093 34.1718 12.7093C33.9394 12.7093 33.5908 12.8255 33.3585 12.8255C33.0099 12.8255 32.6614 12.8255 32.429 12.7093C32.1967 12.5931 31.8481 12.477 31.7319 12.3608C31.4996 12.2446 31.3834 12.0122 31.2672 11.7799C31.0348 11.5475 30.9187 11.3151 30.9187 10.9666H32.0805ZM36.0307 7.24877H36.9601V5.73841H38.1219V7.36496H39.1676V8.29441H38.1219V11.199C38.1219 11.3151 38.1219 11.4313 38.1219 11.5475C38.1219 11.6637 38.1219 11.6637 38.2381 11.7799C38.3543 11.8961 38.3543 11.8961 38.3543 11.8961C38.4705 11.8961 38.5867 11.8961 38.7029 11.8961C38.819 11.8961 38.819 11.8961 38.9352 11.8961C39.0514 11.8961 39.0514 11.8961 39.1676 11.8961V12.7093C39.0514 12.7093 38.9352 12.7093 38.819 12.7093C38.7029 12.7093 38.5867 12.7093 38.4705 12.7093C38.1219 12.7093 37.8896 12.7093 37.7734 12.5931C37.541 12.5931 37.4249 12.477 37.3087 12.3608C37.1925 12.2446 37.0763 12.1284 37.0763 11.8961C37.0763 11.7799 36.9601 11.5475 36.9601 11.3151V8.17823H36.0307V7.24877ZM39.9809 7.24877H41.1427V8.06205C41.2589 7.7135 41.4912 7.48114 41.8398 7.36496C42.1883 7.24877 42.4207 7.13259 42.7692 7.13259C43.234 7.13259 43.5825 7.24877 43.931 7.36496C44.2796 7.48114 44.512 7.7135 44.7443 7.94587C44.9767 8.17823 45.0929 8.52678 45.209 8.87532C45.3252 9.22387 45.3252 9.57242 45.3252 10.0371C45.3252 10.3857 45.3252 10.7342 45.209 11.0828C45.0929 11.4313 44.9767 11.6637 44.7443 12.0122C44.512 12.2446 44.2796 12.477 44.0472 12.5931C43.6987 12.7093 43.4663 12.8255 43.0016 12.8255C42.8854 12.8255 42.653 12.8255 42.5369 12.8255C42.4207 12.8255 42.1883 12.7093 42.0721 12.7093C41.9559 12.5931 41.7236 12.5931 41.6074 12.477C41.4912 12.3608 41.375 12.2446 41.2589 12.1284V14.8006H40.097V7.24877H39.9809ZM44.1634 10.0371C44.1634 9.80478 44.1634 9.57241 44.0472 9.34005C43.931 9.10769 43.931 8.87532 43.8149 8.75914C43.6987 8.64296 43.5825 8.4106 43.3501 8.29441C43.1178 8.17823 43.0016 8.17823 42.653 8.17823C42.1883 8.17823 41.7236 8.29441 41.4912 8.64296C41.2589 8.9915 41.1427 9.45623 41.1427 10.0371C41.1427 10.2695 41.1427 10.6181 41.2589 10.7342C41.375 10.9666 41.375 11.199 41.6074 11.3151C41.7236 11.4313 41.8398 11.6637 42.0721 11.6637C42.3045 11.7799 42.4207 11.7799 42.653 11.7799C42.8854 11.7799 43.1178 11.7799 43.3501 11.6637C43.5825 11.5475 43.6987 11.4313 43.8149 11.199C43.931 10.9666 44.0472 10.8504 44.0472 10.6181C44.0472 10.5019 44.1634 10.2695 44.1634 10.0371ZM46.2547 5.27368H47.4165V6.4355H46.2547V5.27368ZM46.2547 7.24877H47.4165V12.7093H46.2547V7.24877ZM48.4621 5.27368H49.624V12.7093H48.4621V5.27368ZM53.2256 12.8255C52.7609 12.8255 52.4123 12.7093 52.0638 12.5931C51.7152 12.477 51.4829 12.2446 51.2505 12.0122C51.0181 11.7799 50.7858 11.4313 50.6696 11.0828C50.5534 10.7342 50.4372 10.3857 50.4372 9.92096C50.4372 9.45623 50.5534 9.10769 50.6696 8.75914C50.7858 8.41059 51.0181 8.06205 51.2505 7.82968C51.4829 7.59732 51.7152 7.36496 52.0638 7.24877C52.4123 7.13259 52.7609 7.01641 53.2256 7.01641C53.6903 7.01641 54.0389 7.13259 54.3874 7.24877C54.736 7.36496 54.9683 7.59732 55.2007 7.82968C55.4331 8.06205 55.6654 8.41059 55.7816 8.75914C55.8978 9.10769 56.014 9.45623 56.014 9.92096C56.014 10.3857 55.8978 10.7342 55.7816 11.0828C55.6654 11.4313 55.4331 11.7799 55.2007 12.0122C54.9683 12.2446 54.736 12.477 54.3874 12.5931C54.0389 12.7093 53.6903 12.8255 53.2256 12.8255ZM53.2256 11.8961C53.458 11.8961 53.6903 11.8961 53.9227 11.7799C54.1551 11.6637 54.2712 11.5475 54.3874 11.3151C54.5036 11.0828 54.6198 10.9666 54.6198 10.7342C54.6198 10.5019 54.736 10.2695 54.736 10.0371C54.736 9.80478 54.736 9.57241 54.6198 9.34005C54.6198 9.10769 54.5036 8.87532 54.3874 8.75914C54.2712 8.64296 54.1551 8.4106 53.9227 8.29441C53.6903 8.17823 53.458 8.17823 53.2256 8.17823C52.9932 8.17823 52.7609 8.17823 52.5285 8.29441C52.2961 8.4106 52.18 8.52678 52.0638 8.75914C51.9476 8.9915 51.8314 9.10769 51.8314 9.34005C51.8314 9.57241 51.7152 9.80478 51.7152 10.0371C51.7152 10.2695 51.7152 10.5019 51.8314 10.7342C51.8314 10.9666 51.9476 11.199 52.0638 11.3151C52.18 11.5475 52.2961 11.6637 52.5285 11.7799C52.7609 11.7799 52.9932 11.8961 53.2256 11.8961ZM56.3625 7.24877H57.292V5.73841H58.4538V7.36496H59.4994V8.29441H58.4538V11.199C58.4538 11.3151 58.4538 11.4313 58.4538 11.5475C58.4538 11.6637 58.4538 11.6637 58.57 11.7799C58.6862 11.8961 58.6862 11.8961 58.6862 11.8961C58.8023 11.8961 58.9185 11.8961 59.0347 11.8961C59.1509 11.8961 59.1509 11.8961 59.2671 11.8961C59.3833 11.8961 59.3832 11.8961 59.4994 11.8961V12.7093C59.3832 12.7093 59.2671 12.7093 59.1509 12.7093C59.0347 12.7093 58.9185 12.7093 58.8023 12.7093C58.4538 12.7093 58.2214 12.7093 58.1052 12.5931C57.8729 12.5931 57.7567 12.477 57.6405 12.3608C57.5243 12.2446 57.4082 12.1284 57.4082 11.8961C57.4082 11.7799 57.292 11.5475 57.292 11.3151V8.17823H56.3625V7.24877Z" fill="black"/>
<path d="M14.4212 5.27421H8.96066L7.33411 0.0460205L5.59138 5.27421H0.247009L4.54574 8.41112L2.91919 13.6393L7.33411 10.3862L11.6328 13.6393L10.0063 8.41112L14.4212 5.27421Z" fill="#00B67A"/>
<path d="M10.3554 9.57332L10.0068 8.4115L7.33466 10.3866L10.3554 9.57332Z" fill="#005128"/>
<path d="M11.4005 16.8005H0.247009V27.954H11.4005V16.8005Z" fill="#00B67A"/>
<path d="M23.3678 16.8005H12.2144V27.954H23.3678V16.8005Z" fill="#00B67A"/>
<path d="M35.451 16.8005H24.2975V27.954H35.451V16.8005Z" fill="#00B67A"/>
<path d="M5.7076 24.2358L7.45033 23.7711L8.14742 25.9785L5.7076 24.2358ZM9.65779 21.4474H6.63706L5.7076 18.6591L4.77815 21.4474H1.8736L4.31342 23.1902L3.38396 25.9785L5.82378 24.2358L7.33415 23.1902L9.65779 21.4474Z" fill="white"/>
<path d="M17.7909 24.2359L19.5336 23.7712L20.2307 25.9786L17.7909 24.2359ZM21.6249 21.4475H18.6041L17.6747 18.6592L16.7452 21.4475H13.7245L16.1643 23.1903L15.2349 25.9786L17.6747 24.2359L19.185 23.1903L21.6249 21.4475Z" fill="white"/>
<path d="M29.8736 24.2359L31.6163 23.7712L32.3134 25.9786L29.8736 24.2359ZM33.7076 21.4475H30.6868L29.7574 18.6592L28.8279 21.4475H25.8072L28.247 23.1903L27.4337 25.9786L29.8736 24.2359L31.3839 23.1903L33.7076 21.4475Z" fill="white"/>
<path d="M47.4176 16.8005H36.2641V27.954H47.4176V16.8005Z" fill="#00B67A"/>
<path d="M41.8408 24.2359L43.5835 23.7712L44.2806 25.9786L41.8408 24.2359ZM45.7909 21.4475H42.7702L41.8408 18.6592L40.9113 21.4475H37.8906L40.3304 23.1903L39.4009 25.9786L41.8408 24.2359L43.3511 23.1903L45.7909 21.4475Z" fill="white"/>
<path d="M59.5 16.8005H48.3465V27.954H59.5V16.8005Z" fill="#00B67A"/>
<path d="M48.3465 16.8005H53.9232V27.8378H48.3465V16.8005Z" fill="#00B67A"/>
<path d="M53.9235 24.2359L55.6662 23.7712L56.3633 25.9786L53.9235 24.2359ZM57.7575 21.4475H54.7367L53.8073 18.6592L52.994 21.4475H49.9733L52.4131 23.1903L51.4836 25.9786L53.9235 24.2359L55.4338 23.1903L57.7575 21.4475Z" fill="white"/>
</svg>
